<svg width="20" height="18" viewBox="0 0 20 18" fill="none" xmlns="http://www.w3.org/2000/svg">
<path d="M10.1829 2.28718H16.9209C18.0021 2.28718 18.8786 3.16369 18.8786 4.24492V4.24492V6.20267V10.1182V13.8018C18.8786 15.6567 17.3749 17.1604 15.52 17.1604H4.19862C2.34372 17.1604 0.840018 15.6567 0.840018 13.8018V9.7238V6.00549V4.14633V4.14633C0.840018 3.11955 1.67239 2.28718 2.69917 2.28718H4.4231" stroke="#752EE7" stroke-width="1.636" stroke-linecap="round"/>
<path d="M5.92824 0.839768H8.3688" stroke="#28CC95" stroke-width="1.636" stroke-linecap="round"/>
<path d="M13.4766 9.72387C13.4766 10.6137 13.1789 11.4759 12.6342 12.1637C12.0895 12.8516 11.3316 13.3224 10.4895 13.496C9.64748 13.6696 8.77338 13.5352 8.0162 13.1157C7.25902 12.6963 6.66559 12.0177 6.33703 11.1957C6.00847 10.3736 5.96512 9.45892 6.21434 8.60744C6.46357 7.75596 6.98996 7.02038 7.70383 6.52604C8.4177 6.0317 9.27487 5.80918 10.1293 5.89639C10.9837 5.98361 11.7825 6.37516 12.3896 7.00434" stroke="#752EE7" stroke-width="1.636" stroke-linecap="round"/>
<ellipse cx="13.7863" cy="8.0461" rx="0.602601" ry="0.624521" fill="#752EE7"/>
</svg>
