<svg width="101" height="34" viewBox="0 0 101 34" fill="none" xmlns="http://www.w3.org/2000/svg">
<path d="M0.58048 16.9618C0.58048 8.14265 7.71912 0.987649 16.5383 0.967442L60.9997 0.865572L56.5964 32.8574L16.6145 32.9562C7.76556 32.9781 0.58048 25.8107 0.58048 16.9618Z" fill="#28CC95" stroke="#28CC95" stroke-width="1.15651"/>
<path d="M32.9518 26.6923C38.4115 26.6923 42.8374 22.3529 42.8374 17C42.8374 11.647 38.4115 7.3076 32.9518 7.3076C27.4921 7.3076 23.0662 11.647 23.0662 17C23.0662 18.2788 23.3188 19.4997 23.7778 20.6175V23.25V25.8824H27.3583" stroke="white" stroke-width="2.83743" stroke-linecap="round"/>
<ellipse cx="28.1007" cy="17.1904" rx="1.35645" ry="1.32994" fill="white"/>
<ellipse cx="32.9534" cy="17.1904" rx="1.35645" ry="1.32994" fill="white"/>
<ellipse cx="37.8061" cy="17.1904" rx="1.35645" ry="1.32994" fill="white"/>
</svg>
