<svg width="20" height="21" viewBox="0 0 20 21" fill="none" xmlns="http://www.w3.org/2000/svg">
<path fill-rule="evenodd" clip-rule="evenodd" d="M14.5247 1.85284C12.7879 0.528736 10.6257 -0.12309 8.44045 0.0192136C6.25513 0.161524 4.1955 1.08841 2.64582 2.62812C1.09609 4.16786 0.162667 6.21486 0.019349 8.38741C-0.123964 10.5599 0.532539 12.7091 1.86546 14.435C3.19834 16.1609 5.11709 17.3463 7.2644 17.7707C9.41178 18.1951 11.6421 17.8295 13.5396 16.7411C14.0198 16.4656 14.1858 15.8555 13.9103 15.3784C13.6349 14.9012 13.0223 14.7377 12.542 15.0132C11.0671 15.8593 9.33215 16.1442 7.66021 15.8137C5.9882 15.4833 4.49405 14.5601 3.45632 13.2164C2.41864 11.8728 1.9085 10.2009 2.01988 8.51256C2.13125 6.82432 2.85647 5.23417 4.06032 4.03807C5.26421 2.84193 6.8653 2.12084 8.56579 2.0101C10.2664 1.89936 11.95 2.40666 13.3027 3.4379C14.6553 4.46913 15.5839 5.95335 15.9163 7.61343C16.2486 9.2734 15.9621 10.9961 15.111 12.4609C14.8335 12.9384 14.9969 13.5483 15.476 13.8231C15.955 14.0979 16.5683 13.9336 16.8458 13.4561C17.9417 11.5701 18.3099 9.35309 17.8825 7.21833C17.4552 5.08367 16.2615 3.17697 14.5247 1.85284ZM19.6977 19.7008C20.1007 19.3003 20.1007 18.6512 19.6977 18.2508L16.6805 15.253C16.2775 14.8526 15.6241 14.8526 15.2211 15.253C14.8181 15.6534 14.8181 16.3025 15.2211 16.703L18.2383 19.7008C18.6413 20.1012 19.2947 20.1012 19.6977 19.7008Z" fill="#752EE7"/>
</svg>
