<svg width="21" height="23" viewBox="0 0 21 23" fill="none" xmlns="http://www.w3.org/2000/svg">
<path fill-rule="evenodd" clip-rule="evenodd" d="M7.38548 1.11503C8.87302 0.503556 10.5092 0.343736 12.0877 0.655322C13.6662 0.96692 15.1176 1.73632 16.2579 2.86793C17.3983 3.99966 18.1762 5.44292 18.4914 7.01581C18.8067 8.58878 18.6448 10.2191 18.0266 11.7001C17.5167 12.9218 16.7156 13.9959 15.6984 14.8333C17.3167 15.5017 18.8047 16.4822 20.0691 17.7369C20.6404 18.3039 20.6439 19.2267 20.0769 19.798C19.5099 20.3694 18.5871 20.3729 18.0158 19.8059C16.0244 17.8296 13.3211 16.7173 10.5 16.7173C7.67898 16.7173 4.97568 17.8296 2.98426 19.8059C2.41293 20.3729 1.49015 20.3694 0.923161 19.798C0.356173 19.2267 0.359691 18.3039 0.931017 17.7369C3.40714 15.2796 6.74114 13.874 10.2307 13.8051C10.318 13.7888 10.4081 13.7803 10.5001 13.7803C11.5376 13.7803 12.551 13.4749 13.4119 12.904C14.2727 12.3332 14.942 11.5231 15.3367 10.5773C15.7314 9.6317 15.8345 8.5918 15.6334 7.58866C15.4323 6.58546 14.9357 5.66242 14.2046 4.93688C13.4734 4.21123 12.5405 3.71582 11.5232 3.51499C10.5058 3.31416 9.45137 3.41733 8.4937 3.811C7.53614 4.20462 6.71949 4.87046 6.14575 5.72259C5.5721 6.5746 5.26662 7.5751 5.26662 8.59765C5.26662 9.40257 4.61411 10.0551 3.80919 10.0551C3.00428 10.0551 2.35176 9.40257 2.35176 8.59765C2.35176 6.99363 2.8311 5.42655 3.72787 4.09465C4.62454 2.76287 5.89784 1.72656 7.38548 1.11503Z" fill="#28CC95"/>
<path d="M12.0877 0.655322L11.9908 1.14599L12.0877 0.655322ZM7.38548 1.11503L7.19533 0.652453L7.19533 0.652453L7.38548 1.11503ZM16.2579 2.86793L16.6102 2.51293V2.51293L16.2579 2.86793ZM18.4914 7.01581L18.9818 6.91752L18.4914 7.01581ZM18.0266 11.7001L17.5651 11.5074H17.5651L18.0266 11.7001ZM15.6984 14.8333L15.5075 15.2955L14.7368 14.9772L15.3806 14.4472L15.6984 14.8333ZM20.0691 17.7369L20.4214 17.3819H20.4214L20.0691 17.7369ZM20.0769 19.798L19.7219 19.4457H19.7219L20.0769 19.798ZM18.0158 19.8059L18.3681 19.4509L18.0158 19.8059ZM2.98426 19.8059L2.63196 19.4509L2.98426 19.8059ZM0.931017 17.7369L0.578716 17.3819L0.931017 17.7369ZM10.2307 13.8051L10.3226 14.2968L10.2819 14.3044L10.2406 14.3052L10.2307 13.8051ZM13.4119 12.904L13.1355 12.4872H13.1355L13.4119 12.904ZM15.3367 10.5773L15.7982 10.77L15.3367 10.5773ZM15.6334 7.58866L15.143 7.68695L15.6334 7.58866ZM14.2046 4.93688L13.8523 5.29188L14.2046 4.93688ZM11.5232 3.51499L11.62 3.02432L11.5232 3.51499ZM8.4937 3.811L8.68386 4.27358L8.4937 3.811ZM6.14575 5.72259L5.73089 5.44327L6.14575 5.72259ZM3.72787 4.09465L4.14273 4.37398V4.37398L3.72787 4.09465ZM11.9908 1.14599C10.5086 0.85341 8.97225 1.00351 7.57563 1.57762L7.19533 0.652453C8.77378 0.00360107 10.5098 -0.165939 12.1845 0.164652L11.9908 1.14599ZM15.9056 3.22293C14.8355 2.16097 13.473 1.43858 11.9908 1.14599L12.1845 0.164652C13.8593 0.495257 15.3997 1.31166 16.6102 2.51293L15.9056 3.22293ZM18.001 7.1141C17.7054 5.63896 16.9758 4.28496 15.9056 3.22293L16.6102 2.51293C17.8208 3.71435 18.647 5.24688 18.9818 6.91752L18.001 7.1141ZM17.5651 11.5074C18.1449 10.1183 18.2967 8.58929 18.001 7.1141L18.9818 6.91752C19.3167 8.58826 19.1447 10.3199 18.4882 11.8927L17.5651 11.5074ZM15.3806 14.4472C16.3352 13.6612 17.0868 12.6534 17.5651 11.5074L18.4882 11.8927C17.9466 13.1902 17.096 14.3305 16.0163 15.2194L15.3806 14.4472ZM19.7168 18.0919C18.4993 16.8837 17.0662 15.9393 15.5075 15.2955L15.8894 14.371C17.5671 15.064 19.1101 16.0807 20.4214 17.3819L19.7168 18.0919ZM19.7219 19.4457C20.0943 19.0705 20.092 18.4644 19.7168 18.0919L20.4214 17.3819C21.1887 18.1435 21.1935 19.383 20.4319 20.1503L19.7219 19.4457ZM18.3681 19.4509C18.7434 19.8233 19.3495 19.821 19.7219 19.4457L20.4319 20.1503C19.6704 20.9177 18.4309 20.9225 17.6635 20.1609L18.3681 19.4509ZM10.5 16.2172C13.4525 16.2172 16.2826 17.3812 18.3681 19.4509L17.6635 20.1609C15.7662 18.278 13.1897 17.2175 10.5 17.2175V16.2172ZM2.63196 19.4509C4.71746 17.3812 7.54755 16.2172 10.5 16.2172V17.2175C7.8104 17.2175 5.23391 18.278 3.33656 20.1609L2.63196 19.4509ZM1.27816 19.4457C1.65058 19.821 2.25669 19.8233 2.63196 19.4509L3.33656 20.1609C2.56918 20.9225 1.32972 20.9177 0.568163 20.1503L1.27816 19.4457ZM1.28332 18.0919C0.908052 18.4644 0.905742 19.0705 1.27816 19.4457L0.568163 20.1503C-0.193396 19.383 -0.18867 18.1435 0.578716 17.3819L1.28332 18.0919ZM10.2406 14.3052C6.87888 14.3715 3.6677 15.7257 1.28332 18.0919L0.578716 17.3819C3.14657 14.8336 6.6034 13.3765 10.2209 13.3051L10.2406 14.3052ZM10.5001 14.2804C10.439 14.2804 10.3797 14.2861 10.3226 14.2968L10.1389 13.3135C10.2563 13.2916 10.3771 13.2802 10.5001 13.2802V14.2804ZM13.6883 13.3209C12.7452 13.9462 11.6357 14.2804 10.5001 14.2804V13.2802C11.4396 13.2802 12.3567 13.0036 13.1355 12.4872L13.6883 13.3209ZM15.7982 10.77C15.3652 11.8075 14.6313 12.6955 13.6883 13.3209L13.1355 12.4872C13.9141 11.9709 14.5187 11.2386 14.8751 10.3847L15.7982 10.77ZM16.1238 7.49037C16.3445 8.59128 16.2313 9.73248 15.7982 10.77L14.8751 10.3847C15.2315 9.53091 15.3245 8.59232 15.143 7.68695L16.1238 7.49037ZM14.5569 4.58189C15.3583 5.37712 15.9031 6.38942 16.1238 7.49037L15.143 7.68695C14.9615 6.78149 14.5132 5.94772 13.8523 5.29188L14.5569 4.58189ZM11.62 3.02432C12.7336 3.24415 13.7556 3.78658 14.5569 4.58189L13.8523 5.29188C13.1913 4.63588 12.3473 4.18748 11.4263 4.00567L11.62 3.02432ZM8.30355 3.34842C9.35213 2.91738 10.5064 2.80449 11.62 3.02432L11.4263 4.00567C10.5052 3.82384 9.55061 3.91729 8.68386 4.27358L8.30355 3.34842ZM5.73089 5.44327C6.36003 4.50883 7.25503 3.77943 8.30355 3.34842L8.68386 4.27358C7.81725 4.62982 7.07895 5.23208 6.56062 6.00192L5.73089 5.44327ZM4.76648 8.59765C4.76648 7.47534 5.10179 6.37762 5.73089 5.44327L6.56062 6.00192C6.04242 6.77158 5.76676 7.67487 5.76676 8.59765H4.76648ZM3.80919 9.55494C4.33789 9.55494 4.76648 9.12635 4.76648 8.59765H5.76676C5.76676 9.67879 4.89033 10.5552 3.80919 10.5552V9.55494ZM2.8519 8.59765C2.8519 9.12635 3.28049 9.55494 3.80919 9.55494V10.5552C2.72806 10.5552 1.85162 9.67879 1.85162 8.59765H2.8519ZM4.14273 4.37398C3.30141 5.62354 2.8519 7.0934 2.8519 8.59765H1.85162C1.85162 6.89386 2.36079 5.22957 3.313 3.81532L4.14273 4.37398ZM7.57563 1.57762C6.17894 2.15175 4.98399 3.1245 4.14273 4.37398L3.313 3.81532C4.26508 2.40125 5.61674 1.30136 7.19533 0.652453L7.57563 1.57762Z" fill="#28CC95"/>
<path d="M7.53921 20.0364H12.3027" stroke="#28CC95" stroke-width="1.49412" stroke-linecap="round"/>
<path d="M11.4985 21.5053L13.0437 20.0429L12.2711 19.3118L11.4985 18.5806" stroke="#28CC95" stroke-width="1.49412" stroke-linecap="round"/>
</svg>
