<svg width="21" height="23" viewBox="0 0 21 23" fill="none" xmlns="http://www.w3.org/2000/svg">
<path fill-rule="evenodd" clip-rule="evenodd" d="M13.6147 1.11474C12.1272 0.503436 10.491 0.343666 8.91262 0.655161C7.33418 0.966668 5.88273 1.73585 4.74242 2.8672C3.60199 3.99868 2.82403 5.44166 2.50874 7.01431C2.19343 8.58703 2.35536 10.2171 2.97356 11.6978C3.48351 12.9193 4.28465 13.9931 5.30171 14.8302C3.68342 15.4985 2.1953 16.4788 0.930864 17.7333C0.359597 18.3001 0.35596 19.2226 0.922742 19.7939C1.48952 20.3652 2.41209 20.3688 2.98336 19.802C4.97497 17.8261 7.67859 16.7139 10.5001 16.7139C13.3215 16.7139 16.0251 17.8261 18.0168 19.802C18.588 20.3688 19.5106 20.3652 20.0774 19.7939C20.6442 19.2227 20.6405 18.3001 20.0692 17.7333C17.593 15.2765 14.2589 13.8713 10.7693 13.8024C10.6821 13.7861 10.5921 13.7776 10.5002 13.7776C9.46237 13.7776 8.44883 13.4722 7.58776 12.9014C6.72681 12.3306 6.05754 11.5206 5.66278 10.5751C5.26808 9.62968 5.16499 8.59005 5.36606 7.58717C5.56713 6.58422 6.06375 5.66137 6.79492 4.93594C7.52621 4.21039 8.45932 3.71501 9.47686 3.5142C10.4945 3.31337 11.5491 3.41654 12.507 3.81018C13.4647 4.20378 14.2814 4.86954 14.8552 5.72152C15.4289 6.57336 15.7344 7.57363 15.7344 8.59591C15.7344 9.40063 16.3868 10.053 17.1915 10.053C17.9962 10.053 18.6486 9.40063 18.6486 8.59591C18.6486 6.99212 18.1692 5.42531 17.2724 4.09366C16.3756 2.76215 15.1023 1.7261 13.6147 1.11474Z" fill="#646464"/>
<path d="M8.91262 0.655161L9.00944 1.14572L8.91262 0.655161ZM13.6147 1.11474L13.8047 0.652253V0.652253L13.6147 1.11474ZM4.74242 2.8672L4.39025 2.51224L4.74242 2.8672ZM2.50874 7.01431L2.999 7.11261L2.50874 7.01431ZM2.97356 11.6978L2.51214 11.8905H2.51214L2.97356 11.6978ZM5.30171 14.8302L5.49255 15.2924L6.26333 14.9742L5.61948 14.4442L5.30171 14.8302ZM0.930864 17.7333L1.28304 18.0883H1.28304L0.930864 17.7333ZM0.922742 19.7939L0.567781 20.1461H0.567781L0.922742 19.7939ZM2.98336 19.802L3.33554 20.157L2.98336 19.802ZM10.5001 16.7139V17.214V16.7139ZM18.0168 19.802L17.6646 20.157L18.0168 19.802ZM20.0774 19.7939L20.4323 20.1461L20.0774 19.7939ZM20.0692 17.7333L19.7171 18.0883L20.0692 17.7333ZM10.7693 13.8024L10.6775 14.2939L10.7181 14.3015L10.7595 14.3023L10.7693 13.8024ZM7.58776 12.9014L7.31147 13.3182L7.58776 12.9014ZM5.66278 10.5751L5.20136 10.7677L5.66278 10.5751ZM5.36606 7.58717L5.85632 7.68546V7.68546L5.36606 7.58717ZM6.79492 4.93594L7.14709 5.2909L6.79492 4.93594ZM9.47686 3.5142L9.57367 4.00476V4.00476L9.47686 3.5142ZM12.507 3.81018L12.697 3.34769L12.507 3.81018ZM14.8552 5.72152L14.4405 6.00083L14.8552 5.72152ZM17.2724 4.09366L16.8576 4.37298V4.37298L17.2724 4.09366ZM9.00944 1.14572C10.4916 0.853217 12.028 1.00328 13.4246 1.57724L13.8047 0.652253C12.2264 0.00359626 10.4904 -0.165885 8.81581 0.164599L9.00944 1.14572ZM5.09459 3.22216C6.16472 2.16044 7.52723 1.43824 9.00944 1.14572L8.81581 0.164599C7.14113 0.495099 5.60074 1.31126 4.39025 2.51224L5.09459 3.22216ZM2.999 7.11261C3.2947 5.63771 4.02438 4.28397 5.09459 3.22216L4.39025 2.51224C3.1796 3.71339 2.35336 5.24562 2.01847 6.91602L2.999 7.11261ZM3.43499 11.5052C2.85513 10.1163 2.7033 8.58755 2.999 7.11261L2.01847 6.91602C1.68356 8.58652 1.85559 10.3179 2.51214 11.8905L3.43499 11.5052ZM5.61948 14.4442C4.66492 13.6585 3.91331 12.6509 3.43499 11.5052L2.51214 11.8905C3.05371 13.1877 3.90438 14.3277 4.98393 15.2163L5.61948 14.4442ZM1.28304 18.0883C2.50063 16.8802 3.93376 15.9361 5.49255 15.2924L5.11087 14.3681C3.43308 15.0609 1.88998 16.0773 0.57869 17.3783L1.28304 18.0883ZM1.2777 19.4417C0.905421 19.0665 0.90781 18.4605 1.28304 18.0883L0.57869 17.3783C-0.188616 18.1396 -0.1935 19.3788 0.567781 20.1461L1.2777 19.4417ZM2.63119 19.4471C2.25596 19.8194 1.64998 19.817 1.2777 19.4417L0.567781 20.1461C1.32906 20.9134 2.56823 20.9183 3.33554 20.157L2.63119 19.4471ZM10.5001 16.2139C7.54723 16.2139 4.71686 17.3778 2.63119 19.4471L3.33554 20.157C5.23307 18.2744 7.80994 17.214 10.5001 17.214V16.2139ZM18.3689 19.4471C16.2833 17.3778 13.4529 16.2139 10.5001 16.2139V17.214C13.1902 17.214 15.767 18.2744 17.6646 20.157L18.3689 19.4471ZM19.7224 19.4417C19.3501 19.817 18.7442 19.8194 18.3689 19.4471L17.6646 20.157C18.4319 20.9183 19.6711 20.9134 20.4323 20.1461L19.7224 19.4417ZM19.7171 18.0883C20.0923 18.4605 20.0947 19.0665 19.7224 19.4417L20.4323 20.1461C21.1936 19.3788 21.1887 18.1396 20.4214 17.3783L19.7171 18.0883ZM10.7595 14.3023C14.1213 14.3687 17.3326 15.7225 19.7171 18.0883L20.4214 17.3783C17.8535 14.8305 14.3966 13.3739 10.7792 13.3025L10.7595 14.3023ZM10.5002 14.2776C10.5612 14.2776 10.6204 14.2833 10.6775 14.2939L10.8611 13.3109C10.7438 13.289 10.6231 13.2776 10.5002 13.2776V14.2776ZM7.31147 13.3182C8.25467 13.9434 9.36435 14.2776 10.5002 14.2776V13.2776C9.5604 13.2776 8.64299 13.001 7.86404 12.4846L7.31147 13.3182ZM5.20136 10.7677C5.63444 11.8051 6.36836 12.6929 7.31147 13.3182L7.86404 12.4846C7.08527 11.9684 6.48063 11.2362 6.12421 10.3825L5.20136 10.7677ZM4.87579 7.48888C4.65512 8.58953 4.76831 9.73047 5.20136 10.7677L6.12421 10.3825C5.76786 9.5289 5.67486 8.59056 5.85632 7.68546L4.87579 7.48888ZM6.44275 4.58098C5.64135 5.37608 5.09646 6.38818 4.87579 7.48888L5.85632 7.68546C6.0378 6.78026 6.48615 5.94666 7.14709 5.2909L6.44275 4.58098ZM9.38004 3.02363C8.26626 3.24344 7.24421 3.78581 6.44275 4.58098L7.14709 5.2909C7.8082 4.63498 8.65238 4.18658 9.57367 4.00476L9.38004 3.02363ZM12.697 3.34769C11.6483 2.9167 10.4939 2.80382 9.38004 3.02363L9.57367 4.00476C10.495 3.82292 11.4499 3.91638 12.3169 4.27268L12.697 3.34769ZM15.27 5.44221C14.6408 4.50796 13.7457 3.77865 12.697 3.34769L12.3169 4.27268C13.1837 4.62891 13.9221 5.23113 14.4405 6.00083L15.27 5.44221ZM16.2344 8.59591C16.2344 7.47386 15.8991 6.37638 15.27 5.44221L14.4405 6.00083C14.9587 6.77034 15.2344 7.6734 15.2344 8.59591H16.2344ZM17.1915 9.55297C16.6629 9.55297 16.2344 9.12448 16.2344 8.59591H15.2344C15.2344 9.67679 16.1106 10.553 17.1915 10.553V9.55297ZM18.1485 8.59591C18.1485 9.12448 17.7201 9.55297 17.1915 9.55297V10.553C18.2724 10.553 19.1486 9.67679 19.1486 8.59591H18.1485ZM16.8576 4.37298C17.699 5.6223 18.1485 7.0919 18.1485 8.59591H19.1486C19.1486 6.89235 18.6394 5.22832 17.6871 3.81435L16.8576 4.37298ZM13.4246 1.57724C14.8213 2.15123 16.0163 3.12375 16.8576 4.37298L17.6871 3.81435C16.735 2.40056 15.3833 1.30097 13.8047 0.652253L13.4246 1.57724Z" fill="#646464"/>
<path d="M13.4606 20.0322H8.69676" stroke="#646464" stroke-width="1.49412" stroke-linecap="round"/>
<path d="M9.50029 21.501L7.95545 20.039L8.72787 19.308L9.50029 18.577" stroke="#646464" stroke-width="1.49412" stroke-linecap="round"/>
</svg>
