<svg width="12" height="12" viewBox="0 0 12 12" fill="none" xmlns="http://www.w3.org/2000/svg">
<path d="M1.22716 7.48889C1.22716 8.05997 1.35292 8.62545 1.59726 9.15306C1.8416 9.68067 2.19973 10.1601 2.65121 10.5639C3.10269 10.9677 3.63868 11.288 4.22856 11.5066C4.81845 11.7251 5.45069 11.8376 6.08917 11.8376C6.72766 11.8376 7.3599 11.7251 7.94979 11.5066C8.53967 11.288 9.07566 10.9677 9.52714 10.5639C9.97862 10.1601 10.3367 9.68067 10.5811 9.15306C10.8254 8.62545 10.9512 8.05997 10.9512 7.48889L10.4792 7.38273C7.42909 6.6966 4.26077 6.73295 1.22716 7.48889V7.48889Z" fill="#752EE7"/>
<ellipse cx="2.36076" cy="3.05242" rx="2.36076" ry="3.05242" fill="#752EE7"/>
<ellipse cx="9.6397" cy="3.05242" rx="2.36076" ry="3.05242" fill="#752EE7"/>
</svg>
