<svg width="19" height="19" viewBox="0 0 19 19" fill="none" xmlns="http://www.w3.org/2000/svg">
<path d="M6.60094 14.3894C5.91475 14.3894 5.35851 13.8365 5.35851 13.1545C5.35851 12.4725 5.91475 11.9196 6.60094 11.9196C7.28713 11.9196 7.84337 12.4725 7.84337 13.1545C7.84337 13.8365 7.28713 14.3894 6.60094 14.3894Z" fill="#EDEDED" stroke="#EDEDED" stroke-width="0.788402" stroke-linecap="round" stroke-linejoin="round"/>
<path d="M16.6615 2.67187C16.8271 2.50365 17.097 2.50216 17.2643 2.66853C17.4317 2.83491 17.4332 3.10616 17.2677 3.27438L10.3019 10.3532L9.56613 10.4916L9.6957 9.75069L16.6615 2.67187Z" fill="#EDEDED" stroke="#EDEDED" stroke-width="1.5768"/>
<path d="M17.7827 9.88287L17.7827 11.7627C17.7827 15.0321 15.1324 17.6825 11.863 17.6825L7.13676 17.6825C3.86738 17.6825 1.21702 15.0321 1.21702 11.7627L1.21702 9.44975L1.21702 5.33339V5.33339C1.21702 3.05998 3.08504 1.21702 5.35845 1.21702V1.21702L14.0611 1.21702" stroke="#EDEDED" stroke-width="2.36521" stroke-linecap="round"/>
</svg>
