<svg width="21" height="23" viewBox="0 0 21 23" fill="none" xmlns="http://www.w3.org/2000/svg">
<path fill-rule="evenodd" clip-rule="evenodd" d="M13.6145 1.11503C12.127 0.503556 10.4908 0.343736 8.91233 0.655322C7.33383 0.96692 5.88238 1.73632 4.74211 2.86793C3.60172 3.99966 2.82383 5.44292 2.50857 7.01581C2.19329 8.58878 2.35521 10.2191 2.97335 11.7001C3.48329 12.9218 4.28443 13.9959 5.30156 14.8333C3.68334 15.5017 2.1953 16.4822 0.930947 17.7369C0.35962 18.3039 0.356102 19.2267 0.92309 19.798C1.49008 20.3694 2.41286 20.3729 2.98419 19.8059C4.97561 17.8296 7.67891 16.7173 10.5 16.7173C13.321 16.7173 16.0243 17.8296 18.0157 19.8059C18.5871 20.3729 19.5099 20.3694 20.0768 19.798C20.6438 19.2267 20.6403 18.3039 20.069 17.7369C17.5929 15.2796 14.2589 13.874 10.7693 13.8051C10.682 13.7888 10.5919 13.7803 10.4999 13.7803C9.46237 13.7803 8.44902 13.4749 7.58808 12.904C6.72727 12.3332 6.05804 11.5231 5.6633 10.5773C5.26861 9.6317 5.16552 8.5918 5.36658 7.58866C5.56766 6.58546 6.06427 5.66242 6.79535 4.93688C7.52656 4.21123 8.45952 3.71582 9.47683 3.51499C10.4942 3.31416 11.5486 3.41733 12.5063 3.811C13.4639 4.20462 14.2805 4.87046 14.8542 5.72259C15.4279 6.5746 15.7334 7.5751 15.7334 8.59765C15.7334 9.40257 16.3859 10.0551 17.1908 10.0551C17.9957 10.0551 18.6482 9.40257 18.6482 8.59765C18.6482 6.99363 18.1689 5.42655 17.2721 4.09465C16.3755 2.76287 15.1022 1.72656 13.6145 1.11503Z" fill="#646464"/>
<path d="M8.91233 0.655322L9.00919 1.14599L8.91233 0.655322ZM13.6145 1.11503L13.8047 0.652453L13.8047 0.652453L13.6145 1.11503ZM4.74211 2.86793L4.38981 2.51293V2.51293L4.74211 2.86793ZM2.50857 7.01581L2.01818 6.91752L2.50857 7.01581ZM2.97335 11.7001L3.4349 11.5074H3.4349L2.97335 11.7001ZM5.30156 14.8333L5.49248 15.2955L6.26324 14.9772L5.61944 14.4472L5.30156 14.8333ZM0.930947 17.7369L0.578645 17.3819H0.578645L0.930947 17.7369ZM0.92309 19.798L1.27809 19.4457H1.27809L0.92309 19.798ZM2.98419 19.8059L2.63189 19.4509L2.98419 19.8059ZM18.0157 19.8059L18.368 19.4509L18.0157 19.8059ZM20.069 17.7369L20.4213 17.3819L20.069 17.7369ZM10.7693 13.8051L10.6774 14.2968L10.7181 14.3044L10.7594 14.3052L10.7693 13.8051ZM7.58808 12.904L7.86448 12.4872H7.86448L7.58808 12.904ZM5.6633 10.5773L5.20175 10.77L5.6633 10.5773ZM5.36658 7.58866L5.85697 7.68695L5.36658 7.58866ZM6.79535 4.93688L7.14765 5.29188L6.79535 4.93688ZM9.47683 3.51499L9.37997 3.02432L9.47683 3.51499ZM12.5063 3.811L12.3161 4.27358L12.5063 3.811ZM14.8542 5.72259L15.2691 5.44327L14.8542 5.72259ZM17.2721 4.09465L16.8573 4.37398V4.37398L17.2721 4.09465ZM9.00919 1.14599C10.4914 0.85341 12.0277 1.00351 13.4244 1.57762L13.8047 0.652453C12.2262 0.00360107 10.4902 -0.165939 8.81547 0.164652L9.00919 1.14599ZM5.09441 3.22293C6.16449 2.16097 7.52698 1.43858 9.00919 1.14599L8.81547 0.164652C7.14069 0.495257 5.60027 1.31166 4.38981 2.51293L5.09441 3.22293ZM2.99896 7.1141C3.29463 5.63896 4.02425 4.28496 5.09441 3.22293L4.38981 2.51293C3.17919 3.71435 2.35304 5.24688 2.01818 6.91752L2.99896 7.1141ZM3.4349 11.5074C2.8551 10.1183 2.70328 8.58929 2.99896 7.1141L2.01818 6.91752C1.68331 8.58826 1.85532 10.3199 2.5118 11.8927L3.4349 11.5074ZM5.61944 14.4472C4.66483 13.6612 3.91322 12.6534 3.4349 11.5074L2.5118 11.8927C3.05335 13.1902 3.90404 14.3305 4.98367 15.2194L5.61944 14.4472ZM1.28325 18.0919C2.50075 16.8837 3.93379 15.9393 5.49248 15.2955L5.11063 14.371C3.43289 15.064 1.88986 16.0807 0.578645 17.3819L1.28325 18.0919ZM1.27809 19.4457C0.905671 19.0705 0.907981 18.4644 1.28325 18.0919L0.578645 17.3819C-0.188741 18.1435 -0.193467 19.383 0.568092 20.1503L1.27809 19.4457ZM2.63189 19.4509C2.25662 19.8233 1.6505 19.821 1.27809 19.4457L0.568092 20.1503C1.32965 20.9177 2.5691 20.9225 3.33649 20.1609L2.63189 19.4509ZM10.5 16.2172C7.54748 16.2172 4.71739 17.3812 2.63189 19.4509L3.33649 20.1609C5.23384 18.278 7.81033 17.2175 10.5 17.2175V16.2172ZM18.368 19.4509C16.2825 17.3812 13.4524 16.2172 10.5 16.2172V17.2175C13.1896 17.2175 15.7661 18.278 17.6634 20.1609L18.368 19.4509ZM19.7218 19.4457C19.3494 19.821 18.7433 19.8233 18.368 19.4509L17.6634 20.1609C18.4308 20.9225 19.6703 20.9177 20.4318 20.1503L19.7218 19.4457ZM19.7167 18.0919C20.0919 18.4644 20.0943 19.0705 19.7218 19.4457L20.4318 20.1503C21.1934 19.383 21.1887 18.1435 20.4213 17.3819L19.7167 18.0919ZM10.7594 14.3052C14.1211 14.3715 17.3323 15.7257 19.7167 18.0919L20.4213 17.3819C17.8534 14.8336 14.3966 13.3765 10.7791 13.3051L10.7594 14.3052ZM10.4999 14.2804C10.561 14.2804 10.6203 14.2861 10.6774 14.2968L10.8611 13.3135C10.7437 13.2916 10.6229 13.2802 10.4999 13.2802V14.2804ZM7.31169 13.3209C8.25477 13.9462 9.36429 14.2804 10.4999 14.2804V13.2802C9.56044 13.2802 8.64328 13.0036 7.86448 12.4872L7.31169 13.3209ZM5.20175 10.77C5.63482 11.8075 6.36868 12.6955 7.31169 13.3209L7.86448 12.4872C7.08586 11.9709 6.48127 11.2386 6.12485 10.3847L5.20175 10.77ZM4.8762 7.49037C4.65554 8.59128 4.76872 9.73248 5.20175 10.77L6.12485 10.3847C5.7685 9.53091 5.6755 8.59232 5.85697 7.68695L4.8762 7.49037ZM6.44305 4.58189C5.64173 5.37712 5.09687 6.38942 4.8762 7.49037L5.85697 7.68695C6.03845 6.78149 6.4868 5.94772 7.14765 5.29188L6.44305 4.58189ZM9.37997 3.02432C8.26637 3.24415 7.24444 3.78658 6.44305 4.58189L7.14765 5.29188C7.80867 4.63588 8.65267 4.18748 9.57369 4.00567L9.37997 3.02432ZM12.6964 3.34842C11.6479 2.91738 10.4936 2.80449 9.37997 3.02432L9.57369 4.00567C10.4948 3.82384 11.4494 3.91729 12.3161 4.27358L12.6964 3.34842ZM15.2691 5.44327C14.64 4.50883 13.745 3.77943 12.6964 3.34842L12.3161 4.27358C13.1827 4.62982 13.921 5.23208 14.4394 6.00192L15.2691 5.44327ZM16.2335 8.59765C16.2335 7.47534 15.8982 6.37762 15.2691 5.44327L14.4394 6.00192C14.9576 6.77158 15.2332 7.67487 15.2332 8.59765H16.2335ZM17.1908 9.55494C16.6621 9.55494 16.2335 9.12635 16.2335 8.59765H15.2332C15.2332 9.67879 16.1097 10.5552 17.1908 10.5552V9.55494ZM18.1481 8.59765C18.1481 9.12635 17.7195 9.55494 17.1908 9.55494V10.5552C18.2719 10.5552 19.1484 9.67879 19.1484 8.59765H18.1481ZM16.8573 4.37398C17.6986 5.62354 18.1481 7.0934 18.1481 8.59765H19.1484C19.1484 6.89386 18.6392 5.22957 17.687 3.81532L16.8573 4.37398ZM13.4244 1.57762C14.8211 2.15175 16.016 3.1245 16.8573 4.37398L17.687 3.81532C16.7349 2.40125 15.3833 1.30136 13.8047 0.652453L13.4244 1.57762Z" fill="#646464"/>
<path d="M13.4608 20.0364H8.69726" stroke="#646464" stroke-width="1.49412" stroke-linecap="round"/>
<path d="M9.50153 21.5053L7.95632 20.0429L8.72892 19.3118L9.50153 18.5806" stroke="#646464" stroke-width="1.49412" stroke-linecap="round"/>
</svg>
