<svg width="20" height="23" viewBox="0 0 20 23" fill="none" xmlns="http://www.w3.org/2000/svg">
<path fill-rule="evenodd" clip-rule="evenodd" d="M20 6.42436C20 5.77116 19.6479 5.16867 19.0788 4.84802L10.8882 0.233004C10.3368 -0.0776685 9.66318 -0.0776678 9.11181 0.233005L0.921158 4.84802C0.352074 5.16867 0 5.77116 0 6.42437V15.5787C0 16.2319 0.352075 16.8344 0.921159 17.1551L9.11181 21.7701C9.66319 22.0807 10.3368 22.0807 10.8882 21.7701L19.0788 17.1551C19.6479 16.8344 20 16.2319 20 15.5787V6.42436ZM17.3499 7.91796C17.3499 7.26476 16.9978 6.66227 16.4288 6.34162L10.8887 3.22006C10.3373 2.90938 9.66366 2.90938 9.11228 3.22006L3.57219 6.34162C3.00311 6.66227 2.65103 7.26476 2.65103 7.91796V14.0854C2.65103 14.7386 3.00311 15.3411 3.57219 15.6617L9.11228 18.7833C9.66366 19.094 10.3373 19.094 10.8887 18.7833L16.4288 15.6617C16.9978 15.3411 17.3499 14.7386 17.3499 14.0854V7.91796Z" fill="#752EE7"/>
<ellipse cx="10.0001" cy="11.0015" rx="3.129" ry="3.05366" stroke="#28CC95" stroke-width="2.22893"/>
</svg>
