<svg width="17" height="17" viewBox="0 0 17 17" fill="none" xmlns="http://www.w3.org/2000/svg">
<path d="M15.2271 15.5618C15.7291 15.0385 16.1764 14.471 16.3402 14.2366C16.5796 13.8946 16.6085 13.5795 16.5905 13.3755C16.5655 13.093 16.4363 12.8505 16.236 12.7102C15.9852 12.5346 13.2568 10.72 12.9245 10.517C12.6486 10.3483 12.253 10.3535 11.8396 10.5314C11.7902 10.5526 11.7406 10.5763 11.6922 10.6019C11.5339 10.6855 11.4733 10.8815 11.5569 11.0398C11.6405 11.1981 11.8365 11.2585 11.9948 11.175C12.0282 11.1574 12.062 11.1412 12.0956 11.1268C12.3311 11.0254 12.5153 11.0263 12.5866 11.0699C12.9127 11.2692 15.6544 13.0941 15.8642 13.2411C15.9371 13.2921 16.0279 13.5528 15.8091 13.8653C15.681 14.0487 15.2572 14.5936 14.765 15.1073C14.3668 15.523 14.1002 15.7328 13.9328 15.8388C13.8015 15.9219 13.7304 15.9411 13.7059 15.9455C13.6993 15.9467 13.6926 15.9467 13.6859 15.9465C13.3986 15.9375 12.6347 15.9132 11.3716 15.3163C9.74492 14.5478 7.89745 13.1353 5.88053 11.118C3.86376 9.10076 2.45143 7.25279 1.68305 5.62563C1.08656 4.36217 1.06242 3.59898 1.05335 3.31158L1.05319 3.30235C1.05303 3.29959 1.06015 3.03002 1.8922 2.23248C2.40558 1.73999 2.95104 1.3157 3.13427 1.18756C3.4445 0.971447 3.70889 1.06379 3.7617 1.13685C3.93844 1.38148 5.74444 4.11981 5.93188 4.41563C5.97465 4.48286 5.98291 4.70189 5.82334 5.00451C5.64821 5.3384 4.90592 6.63491 4.89847 6.64803C4.8408 6.7488 4.84144 6.87273 4.90025 6.97285C4.92163 7.00957 5.42387 7.8529 7.04004 9.49876C7.16543 9.62646 7.37147 9.62707 7.49802 9.50052C7.62459 9.37395 7.6243 9.16873 7.49893 9.04099C6.33431 7.85432 5.7694 7.1003 5.5596 6.79724C5.77069 6.42771 6.25426 5.57817 6.39683 5.30616C6.64356 4.83862 6.67417 4.37578 6.47912 4.06862C6.2818 3.75709 4.4758 1.01875 4.28691 0.757279C4.14629 0.562875 3.90556 0.436351 3.62643 0.410268C3.25463 0.375438 2.95218 0.524642 2.76328 0.656189C2.52838 0.82046 1.96072 1.26824 1.43778 1.77028C0.497034 2.67378 0.398051 3.08899 0.405503 3.3226L0.405665 3.33199C0.415871 3.65616 0.443087 4.51721 1.09709 5.90233C1.89738 7.59705 3.35264 9.50609 5.42238 11.5762C7.49212 13.6462 9.40051 15.1018 11.0947 15.9023C12.4797 16.5566 13.341 16.584 13.6654 16.5942L13.6754 16.5945C13.6827 16.5949 13.6902 16.5949 13.6978 16.5949C13.9353 16.5949 14.3521 16.4735 15.2271 15.5618Z" fill="#752EE7" stroke="#A7A7A7" stroke-width="0.800769"/>
<mask id="path-2-inside-1_416_3369" fill="white">
<path d="M11.8571 5.34058C11.7998 5.28328 11.7606 5.20864 11.7501 5.12034C11.5585 3.61907 10.452 2.51256 8.92477 2.29498C8.71635 2.26355 8.5697 2.07442 8.59569 1.87388C8.62528 1.66986 8.81642 1.52828 9.02125 1.55613C10.9006 1.82148 12.2685 3.18939 12.5019 5.03681C12.5299 5.24172 12.3817 5.42627 12.1695 5.44766C12.0543 5.46702 11.9395 5.42294 11.8571 5.34058Z"/>
</mask>
<path d="M11.8571 5.34058C11.7998 5.28328 11.7606 5.20864 11.7501 5.12034C11.5585 3.61907 10.452 2.51256 8.92477 2.29498C8.71635 2.26355 8.5697 2.07442 8.59569 1.87388C8.62528 1.66986 8.81642 1.52828 9.02125 1.55613C10.9006 1.82148 12.2685 3.18939 12.5019 5.03681C12.5299 5.24172 12.3817 5.42627 12.1695 5.44766C12.0543 5.46702 11.9395 5.42294 11.8571 5.34058Z" fill="#28CC95"/>
<path d="M11.7501 5.12034L13.0366 4.97481L13.0351 4.96317L11.7501 5.12034ZM8.92477 2.29498L8.72835 3.54986L8.73903 3.55138L8.92477 2.29498ZM8.59569 1.87388L7.31361 1.69464L7.31225 1.70401L7.31104 1.7134L8.59569 1.87388ZM9.02125 1.55613L9.20535 0.299483L9.19866 0.298575L9.02125 1.55613ZM12.5019 5.03681L11.2167 5.19238L11.2184 5.20449L12.5019 5.03681ZM12.1695 5.44766L12.0365 4.18471L11.9931 4.18909L11.95 4.19634L12.1695 5.44766ZM12.7816 4.45194C12.9166 4.58695 13.0124 4.77044 13.0365 4.97481L10.4637 5.26587C10.5087 5.64684 10.683 5.97962 10.9326 6.22921L12.7816 4.45194ZM13.0351 4.96317C12.771 2.89478 11.2146 1.33835 9.1105 1.03858L8.73903 3.55138C9.68936 3.68677 10.3459 4.34335 10.4652 5.27752L13.0351 4.96317ZM9.12118 1.04015C9.59088 1.11099 9.94485 1.53653 9.88034 2.03435L7.31104 1.7134C7.19456 2.61232 7.84183 3.41611 8.72835 3.54982L9.12118 1.04015ZM9.87777 2.05312C9.80827 2.5322 9.35488 2.88318 8.84384 2.81369L9.19866 0.298575C8.27796 0.173378 7.4423 0.807525 7.31361 1.69464L9.87777 2.05312ZM8.83716 2.81277C10.1383 2.99648 11.0552 3.91336 11.2168 5.19237L13.7871 4.88124C13.4819 2.46543 11.6629 0.646484 9.20534 0.2995L8.83716 2.81277ZM11.2184 5.20449C11.149 4.69528 11.5266 4.23611 12.0365 4.18471L12.3024 6.7106C13.2368 6.61643 13.9108 5.78815 13.7855 4.86913L11.2184 5.20449ZM11.95 4.19634C12.3162 4.13474 12.6137 4.28402 12.7816 4.45194L10.9326 6.22921C11.2652 6.56186 11.7925 6.79931 12.3889 6.69897L11.95 4.19634Z" fill="#A7A7A7" mask="url(#path-2-inside-1_416_3369)"/>
<mask id="path-4-inside-2_416_3369" fill="white">
<path d="M9.95309 5.62465C9.89579 5.56735 9.85655 5.49271 9.84612 5.40441C9.76253 4.74034 9.27194 4.24975 8.59638 4.15467C8.38796 4.12323 8.24131 3.93411 8.2673 3.73356C8.29689 3.52954 8.48803 3.38797 8.69286 3.41582C9.70622 3.55845 10.4725 4.32476 10.5979 5.32088C10.6258 5.52578 10.4777 5.71034 10.2655 5.73172C10.1503 5.75109 10.0355 5.70701 9.95309 5.62465Z"/>
</mask>
<path d="M9.95309 5.62465C9.89579 5.56735 9.85655 5.49271 9.84612 5.40441C9.76253 4.74034 9.27194 4.24975 8.59638 4.15467C8.38796 4.12323 8.24131 3.93411 8.2673 3.73356C8.29689 3.52954 8.48803 3.38797 8.69286 3.41582C9.70622 3.55845 10.4725 4.32476 10.5979 5.32088C10.6258 5.52578 10.4777 5.71034 10.2655 5.73172C10.1503 5.75109 10.0355 5.70701 9.95309 5.62465Z" fill="#28CC95"/>
<path d="M9.84612 5.40441L11.1325 5.25888L11.1313 5.2494L9.84612 5.40441ZM8.59638 4.15467L8.39992 5.40956L8.41286 5.41138L8.59638 4.15467ZM8.2673 3.73356L6.98522 3.55432L6.98386 3.56369L6.98265 3.57308L8.2673 3.73356ZM8.69286 3.41582L8.87639 2.15909L8.87027 2.15826L8.69286 3.41582ZM10.5979 5.32088L9.31263 5.4759L9.31436 5.48856L10.5979 5.32088ZM10.2655 5.73172L10.1325 4.46878L10.0891 4.47316L10.046 4.48041L10.2655 5.73172ZM10.8776 4.73601C11.0126 4.87101 11.1084 5.05451 11.1325 5.25888L8.55974 5.54994C8.60473 5.93091 8.77897 6.26369 9.02856 6.51328L10.8776 4.73601ZM11.1313 5.2494C10.9762 4.01649 10.0341 3.07448 8.7799 2.89795L8.41286 5.41138C8.47899 5.42069 8.50713 5.44322 8.51871 5.4548C8.53029 5.46638 8.55271 5.49442 8.5609 5.55942L11.1313 5.2494ZM8.79283 2.89984C9.26247 2.97069 9.61646 3.39619 9.55195 3.89404L6.98265 3.57308C6.86617 4.47202 7.51345 5.27577 8.39993 5.4095L8.79283 2.89984ZM9.54938 3.9128C9.47988 4.39188 9.02649 4.74287 8.51545 4.67338L8.87027 2.15826C7.94957 2.03306 7.1139 2.66721 6.98522 3.55432L9.54938 3.9128ZM8.50933 4.67253C8.94402 4.73371 9.25891 5.04861 9.31269 5.47589L11.8831 5.16587C11.6862 3.60091 10.4684 2.38318 8.87639 2.1591L8.50933 4.67253ZM9.31436 5.48856C9.24495 4.97936 9.62257 4.52018 10.1325 4.46878L10.3984 6.99467C11.3328 6.90049 12.0068 6.07221 11.8815 5.15319L9.31436 5.48856ZM10.046 4.48041C10.4122 4.41881 10.7097 4.56808 10.8776 4.73601L9.02856 6.51328C9.36121 6.84593 9.88849 7.08337 10.4849 6.98304L10.046 4.48041Z" fill="#A7A7A7" mask="url(#path-4-inside-2_416_3369)"/>
</svg>
