<svg width="23" height="29" viewBox="0 0 23 29" fill="none" xmlns="http://www.w3.org/2000/svg">
<path fill-rule="evenodd" clip-rule="evenodd" d="M13.2233 0.630683C11.7094 0.00358996 10.0435 -0.160486 8.43631 0.159203C6.82912 0.478892 5.35283 1.26799 4.19411 2.42671C3.03539 3.58542 2.24629 5.06172 1.92661 6.6689C1.60692 8.27609 1.77099 9.94199 2.39809 11.4559C2.91299 12.699 3.72107 13.7938 4.74799 14.6497C3.13867 15.3462 1.66447 16.38 0.421146 17.7038C-0.166231 18.3292 -0.135424 19.3123 0.489955 19.8997C1.11533 20.4871 2.09847 20.4563 2.68584 19.8309C4.56348 17.8318 7.088 16.7277 9.69857 16.7258C9.79493 16.7302 9.89199 16.7325 9.98974 16.7325C10.0056 16.7325 10.0214 16.7323 10.0372 16.7318C12.5313 16.8211 14.925 17.9149 16.7245 19.8309C18.6069 21.835 19.6799 24.5728 19.6799 27.4465C19.6799 28.3044 20.3755 28.9999 21.2334 28.9999C22.0914 28.9999 22.7869 28.3044 22.7869 27.4465C22.7869 23.8095 21.4308 20.3034 18.9892 17.7038C16.5634 15.1211 13.2588 13.6418 9.78637 13.6191C8.9518 13.567 8.08488 13.1983 7.17578 12.5909C6.32421 12.0219 5.66049 11.2131 5.26856 10.2669C4.87663 9.32072 4.77408 8.27954 4.97389 7.27505C5.17369 6.27056 5.66688 5.34787 6.39108 4.62367C7.11527 3.89947 8.03796 3.40629 9.04245 3.20648C10.0469 3.00668 11.0881 3.10923 12.0343 3.50116C12.9805 3.89309 13.7893 4.55681 14.3583 5.40837C14.9273 6.25994 15.231 7.26111 15.231 8.28528C15.231 9.14325 15.9265 9.83877 16.7845 9.83877C17.6424 9.83877 18.338 9.14325 18.338 8.28528C18.338 6.64661 17.852 5.04474 16.9416 3.68223C16.0312 2.31972 14.7373 1.25778 13.2233 0.630683Z" fill="#A7A7A7"/>
<rect x="7.64608" y="6.21725" width="2.07132" height="4.14264" rx="1" fill="#A7A7A7"/>
<rect x="10.7505" y="6.21725" width="2.07132" height="4.14264" rx="1" fill="#A7A7A7"/>
</svg>
