<svg width="36" height="36" viewBox="0 0 36 36" fill="none" xmlns="http://www.w3.org/2000/svg">
<path fill-rule="evenodd" clip-rule="evenodd" d="M18 36C27.9411 36 36 27.9411 36 18C36 8.05887 27.9411 0 18 0C8.05887 0 0 8.05887 0 18C0 27.9411 8.05887 36 18 36ZM17.9997 31.658C25.5427 31.658 31.6576 25.5432 31.6576 18.0001C31.6576 10.4571 25.5427 4.34225 17.9997 4.34225C10.4566 4.34225 4.3418 10.4571 4.3418 18.0001C4.3418 25.5432 10.4566 31.658 17.9997 31.658Z" fill="#28CC95"/>
<path fill-rule="evenodd" clip-rule="evenodd" d="M19.7567 11.3451C19.7567 10.3749 18.9702 9.58838 18 9.58838C17.0298 9.58838 16.2433 10.3749 16.2433 11.3451V16.2433H11.3456C10.3754 16.2433 9.58887 17.0298 9.58887 18C9.58887 18.9702 10.3754 19.7567 11.3456 19.7567H16.2433V24.6545C16.2433 25.6247 17.0298 26.4112 18 26.4112C18.9702 26.4112 19.7567 25.6247 19.7567 24.6545V19.7567H24.655C25.6252 19.7567 26.4117 18.9702 26.4117 18C26.4117 17.0298 25.6252 16.2433 24.655 16.2433H19.7567V11.3451Z" fill="#28CC95"/>
</svg>
