<svg xmlns="http://www.w3.org/2000/svg" fill="none" viewBox="60.3 0 40.68 33.99">
<path d="M99.9838 17C99.9838 25.8343 92.8221 32.9959 83.9878 32.9959L61.3032 32.9959L65.7528 1.0041L83.9878 1.0041C92.8221 1.0041 99.9838 8.16571 99.9838 17V17Z" stroke="#A7A7A7" stroke-width="2"/>
<path fill-rule="evenodd" clip-rule="evenodd" d="M84.4063 12.2766C84.4063 9.77624 82.2728 7.70877 79.5897 7.70877C76.9066 7.70877 74.7731 9.77624 74.7731 12.2766C74.7731 14.7769 76.9066 16.8444 79.5897 16.8444C82.2728 16.8444 84.4063 14.7769 84.4063 12.2766ZM79.5897 6.70469C82.7814 6.70469 85.4104 9.17693 85.4104 12.2766C85.4104 14.4472 84.1212 16.3101 82.2524 17.2318C83.9397 17.6626 85.4974 18.4741 86.7668 19.6116C86.9732 19.7967 86.9906 20.1141 86.8056 20.3206C86.6205 20.527 86.3031 20.5444 86.0967 20.3594C84.3307 18.7768 81.9249 17.8797 79.4064 17.8797C76.8878 17.8797 74.482 18.7768 72.7161 20.3594C70.952 21.9403 69.9731 24.072 69.9731 26.2815C69.9731 26.5587 69.7483 26.7835 69.4711 26.7835C69.1938 26.7835 68.969 26.5587 68.969 26.2815C68.969 23.768 70.0837 21.3703 72.046 19.6116C73.3773 18.4186 75.0257 17.5842 76.8081 17.1715C75.0037 16.2304 73.769 14.4008 73.769 12.2766C73.769 9.17693 76.398 6.70469 79.5897 6.70469Z" fill="#A7A7A7"/>
<path d="M82.2524 17.2318L82.1282 17.7183L80.8124 17.3823L82.0304 16.7816L82.2524 17.2318ZM86.7668 19.6116L87.1018 19.2378H87.1018L86.7668 19.6116ZM86.8056 20.3206L87.1794 20.6556L87.1794 20.6556L86.8056 20.3206ZM86.0967 20.3594L86.4317 19.9855H86.4317L86.0967 20.3594ZM72.7161 20.3594L73.0512 20.7332L72.7161 20.3594ZM72.046 19.6116L71.7109 19.2378L72.046 19.6116ZM76.8081 17.1715L77.0403 16.7264L78.2442 17.3544L76.9214 17.6606L76.8081 17.1715ZM79.5897 7.20673C82.5279 7.20673 84.9083 9.4773 84.9083 12.2766H83.9043C83.9043 10.0752 82.0177 8.2108 79.5897 8.2108V7.20673ZM74.2711 12.2766C74.2711 9.4773 76.6516 7.20673 79.5897 7.20673V8.2108C77.1617 8.2108 75.2752 10.0752 75.2752 12.2766H74.2711ZM79.5897 17.3465C76.6516 17.3465 74.2711 15.0759 74.2711 12.2766H75.2752C75.2752 14.478 77.1617 16.3424 79.5897 16.3424V17.3465ZM84.9083 12.2766C84.9083 15.0759 82.5279 17.3465 79.5897 17.3465V16.3424C82.0177 16.3424 83.9043 14.478 83.9043 12.2766H84.9083ZM84.9083 12.2766C84.9083 9.47717 82.5277 7.20673 79.5897 7.20673V6.20265C83.0352 6.20265 85.9124 8.87668 85.9124 12.2766H84.9083ZM82.0304 16.7816C83.7433 15.9367 84.9083 14.2393 84.9083 12.2766H85.9124C85.9124 14.6551 84.4992 16.6835 82.4745 17.6821L82.0304 16.7816ZM86.4317 19.9855C85.2258 18.9048 83.7416 18.1302 82.1282 17.7183L82.3766 16.7454C84.1379 17.1951 85.769 18.0433 87.1018 19.2378L86.4317 19.9855ZM86.4317 19.9855L86.4317 19.9855L87.1018 19.2378C87.5148 19.6079 87.5495 20.2426 87.1794 20.6556L86.4317 19.9855ZM86.4317 19.9855L87.1794 20.6556C86.8094 21.0686 86.1746 21.1033 85.7616 20.7332L86.4317 19.9855ZM79.4064 17.3776C82.0414 17.3776 84.5685 18.3157 86.4317 19.9855L85.7616 20.7332C84.093 19.2378 81.8084 18.3817 79.4064 18.3817V17.3776ZM72.3811 19.9855C74.2443 18.3157 76.7714 17.3776 79.4064 17.3776V18.3817C77.0043 18.3817 74.7198 19.2378 73.0512 20.7332L72.3811 19.9855ZM69.4711 26.2815C69.4711 23.9201 70.5178 21.6553 72.3811 19.9855L73.0512 20.7332C71.3862 22.2254 70.4751 24.224 70.4751 26.2815H69.4711ZM69.4711 26.2815H70.4751C70.4751 26.836 70.0256 27.2856 69.4711 27.2856V26.2815ZM69.4711 26.2815V27.2856C68.9165 27.2856 68.467 26.836 68.467 26.2815H69.4711ZM72.3811 19.9855C70.5178 21.6553 69.4711 23.9201 69.4711 26.2815H68.467C68.467 23.616 69.6495 21.0852 71.7109 19.2378L72.3811 19.9855ZM76.9214 17.6606C75.2167 18.0553 73.6458 18.8521 72.3811 19.9855L71.7109 19.2378C73.1087 17.9851 74.8346 17.1131 76.6949 16.6824L76.9214 17.6606ZM74.2711 12.2766C74.2711 14.1975 75.3869 15.864 77.0403 16.7264L76.576 17.6167C74.6206 16.5968 73.267 14.6042 73.267 12.2766H74.2711ZM79.5897 7.20673C76.6517 7.20673 74.2711 9.47717 74.2711 12.2766H73.267C73.267 8.87668 76.1443 6.20265 79.5897 6.20265V7.20673Z" fill="#A7A7A7"/>
<path d="M88.8662 22.7444C89.1113 22.5278 89.1113 22.1765 88.8662 21.9598C88.6211 21.7431 88.2237 21.7431 87.9786 21.9598L86.2923 23.4504L84.6059 21.9597C84.3607 21.743 83.9633 21.743 83.7182 21.9597C83.4731 22.1763 83.4731 22.5276 83.7182 22.7443L85.4046 24.235L83.7181 25.7259C83.4729 25.9425 83.4729 26.2938 83.7181 26.5105C83.9632 26.7272 84.3606 26.7272 84.6057 26.5105L86.2923 25.0196L87.9787 26.5104C88.2238 26.727 88.6213 26.727 88.8664 26.5104C89.1115 26.2937 89.1115 25.9424 88.8664 25.7257L87.1799 24.235L88.8662 22.7444Z" fill="#A7A7A7"/>
</svg>