<svg width="23" height="23" viewBox="0 0 23 23" fill="none" xmlns="http://www.w3.org/2000/svg">
<path d="M2.29785 15.2338L5.21957 13.6612C7.31671 12.5324 9.83188 12.4944 11.9622 13.5592L20.0368 17.5954" stroke="#752EE7" stroke-width="2" stroke-linecap="round" stroke-linejoin="round"/>
<path d="M13.1436 14.1067V14.1067C15.613 12.0123 19.4219 13.1945 20.2715 16.3191L20.4275 16.8928" stroke="#752EE7" stroke-width="2" stroke-linecap="round" stroke-linejoin="round"/>
<path d="M21.5 4.05918L21.5 14.2037C21.5 18.2333 18.2333 21.5 14.2037 21.5L8.79627 21.5C4.76665 21.5 1.5 18.2333 1.5 14.2037L1.5 11.5L1.5 6.5V6.5C1.5 3.73858 3.73857 1.5 6.5 1.5V1.5L17.0068 1.5" stroke="#752EE7" stroke-width="3" stroke-linecap="round"/>
<path d="M16.5663 8.94436C15.677 8.94436 14.9561 8.22343 14.9561 7.33412C14.9561 6.44481 15.677 5.72388 16.5663 5.72388C17.4556 5.72388 18.1765 6.44481 18.1765 7.33412C18.1765 8.22343 17.4556 8.94436 16.5663 8.94436Z" stroke="#28CC95" stroke-width="2" stroke-linecap="round" stroke-linejoin="round"/>
</svg>
