<svg width="23" height="21" viewBox="0 0 23 21" fill="none" xmlns="http://www.w3.org/2000/svg">
<path d="M13.2764 3.09607H19.3408C20.5333 3.09607 21.5 4.06279 21.5 5.25529V5.25529V7.41451V11.733V15.6265C21.5 17.7657 19.7658 19.4999 17.6265 19.4999H5.37347C3.23421 19.4999 1.5 17.7657 1.5 15.6265V11.298V7.19704V5.14655V5.14655C1.5 4.0141 2.41803 3.09607 3.55048 3.09607H4.41448" stroke="#752EE7" stroke-width="3" stroke-linecap="round"/>
<path d="M7.1416 1.5H9.84802" stroke="#28CC95" stroke-width="3" stroke-linecap="round"/>
<path d="M15.186 11.298C15.186 12.1985 14.8831 13.0711 14.3289 13.7672C13.7748 14.4634 13.0037 14.9398 12.1469 15.1155C11.2902 15.2912 10.4009 15.1552 9.63056 14.7307C8.8602 14.3062 8.25644 13.6195 7.92217 12.7875C7.58789 11.9555 7.54378 11.0298 7.79734 10.1681C8.05091 9.30635 8.58646 8.56191 9.31275 8.06162C10.039 7.56132 10.9111 7.33612 11.7804 7.42438C12.6497 7.51265 13.4624 7.90892 14.0801 8.54568" stroke="#752EE7" stroke-width="2" stroke-linecap="round"/>
<circle cx="15.6729" cy="9.45874" r="0.5" fill="#752EE7"/>
</svg>
