<svg width="35" height="38" viewBox="0 0 35 38" fill="none" xmlns="http://www.w3.org/2000/svg">
<path d="M3.96133 11.0804C3.96133 11.0804 3.91888 -0.637674 6.79919 1.31909C9.6795 3.27584 11.3578 6.09444 11.3578 6.09444C11.3578 6.09444 4.22223 9.1819 3.96133 11.0794V11.0804Z" fill="#A7A7A7" stroke="#404040" stroke-width="1.41622" stroke-miterlimit="10"/>
<path d="M29.8726 10.7826C29.8726 10.7826 30.4247 -0.92212 27.4615 0.910245C24.4985 2.74363 22.7 5.48831 22.7 5.48831C22.7 5.48831 29.6948 8.87608 29.8737 10.7825L29.8726 10.7826Z" fill="#A7A7A7" stroke="#404040" stroke-width="1.41622" stroke-miterlimit="10"/>
<path d="M34.0002 20.7058C34.0002 21.9449 33.8615 23.1533 33.5985 24.3137C31.9327 31.6684 25.2827 37.1645 17.3323 37.1645C8.90881 37.1645 1.94409 30.9936 0.82178 22.9795C0.718246 22.2363 0.664408 21.4777 0.664408 20.7058C0.664408 14.4276 4.2239 8.9714 9.45754 6.19575C11.8026 4.95156 14.4841 4.24614 17.3323 4.24614C20.4497 4.24614 23.3663 5.0906 25.8614 6.56175C30.7358 9.4335 34.0002 14.6934 34.0002 20.7058Z" fill="#A7A7A7" stroke="#404040" stroke-width="1.31506" stroke-miterlimit="10"/>
<path d="M17.4222 30.7197C13.6091 30.7197 10.3115 29.7096 7.04401 27.5392C4.85427 26.0855 2.94614 24.2677 1.51737 22.2742C1.43248 21.6117 1.38899 20.9369 1.38899 20.2683C1.38899 14.4706 4.59854 9.16265 9.76799 6.4054C12.1286 5.44746 14.6413 4.96185 17.238 4.96185C20.1452 4.96185 22.9313 5.56605 25.5207 6.75708C27.8367 8.12804 29.7759 10.0715 31.1312 12.3779C32.534 14.7641 33.2753 17.4927 33.2753 20.2683C33.2753 21.3919 33.1552 22.5124 32.9181 23.6001C31.8497 25.2563 30.6663 26.5915 29.398 27.5699C26.5757 29.7485 22.8826 30.7197 17.4222 30.7197Z" fill="#404040"/>
<path d="M17.2381 5.67742C20.0263 5.67742 22.6974 6.25402 25.1812 7.38984C27.3782 8.69844 29.218 10.5458 30.506 12.7367C31.8447 15.0145 32.5518 17.6184 32.5518 20.2683C32.5518 21.2988 32.4462 22.3252 32.2371 23.324C31.2317 24.8606 30.1281 26.0987 28.9519 27.0055C26.2652 29.0788 22.7099 30.004 17.4224 30.004C13.7594 30.004 10.5902 29.0318 7.44794 26.9452C5.38348 25.5752 3.58096 23.873 2.21431 22.0073C2.14805 21.4317 2.11388 20.8479 2.11388 20.2683C2.11388 14.7466 5.16399 9.69011 10.0787 7.05349C12.341 6.14054 14.7492 5.67742 17.2381 5.67742ZM17.2381 4.24614C14.4738 4.24614 11.8419 4.78492 9.45754 5.75819C4.2239 8.53384 0.664408 13.9901 0.664408 20.2683C0.664408 21.0401 0.718246 21.7987 0.82178 22.5419C2.37272 24.7492 4.42269 26.662 6.63935 28.1331C9.82922 30.2514 13.222 31.4353 17.4224 31.4353C22.1363 31.4353 26.4619 30.7442 29.8444 28.1331C31.2804 27.0249 32.5456 25.5292 33.5985 23.8761C33.8615 22.7157 34.0002 21.5073 34.0002 20.2683C34.0002 14.2559 30.7358 8.99594 25.8614 6.12418C23.2586 4.92089 20.3327 4.24614 17.2381 4.24614Z" fill="#404040"/>
<path d="M14.969 34.8398C16.5499 33.1604 15.5603 29.7141 12.7585 27.1423C9.95674 24.5705 6.4038 23.8471 4.82281 25.5265C3.24182 27.2059 4.23147 30.6522 7.03325 33.224C9.83503 35.7958 13.388 36.5192 14.969 34.8398Z" fill="#A7A7A7" stroke="#404040" stroke-width="1.31506" stroke-miterlimit="10"/>
<path d="M27.5915 33.3435C30.3933 30.7717 31.383 27.3254 29.802 25.646C28.221 23.9666 24.6681 24.69 21.8663 27.2618C19.0645 29.8336 18.0748 33.2799 19.6558 34.9593C21.2368 36.6387 24.7898 35.9153 27.5915 33.3435Z" fill="#A7A7A7" stroke="#404040" stroke-width="1.31506" stroke-miterlimit="10"/>
<path d="M10.8248 18.6374C12.1606 18.6374 13.2436 17.5681 13.2436 16.249C13.2436 14.9299 12.1606 13.8606 10.8248 13.8606C9.4889 13.8606 8.40597 14.9299 8.40597 16.249C8.40597 17.5681 9.4889 18.6374 10.8248 18.6374Z" fill="#A7A7A7"/>
<path d="M10.1923 15.3719H5.99804C5.64847 15.3719 5.36508 15.6517 5.36508 15.9969C5.36508 16.3421 5.64847 16.6219 5.99804 16.6219H10.1923C10.5419 16.6219 10.8253 16.3421 10.8253 15.9969C10.8253 15.6517 10.5419 15.3719 10.1923 15.3719Z" fill="#A7A7A7"/>
<path d="M23.8397 18.233C25.1755 18.233 26.2585 17.1636 26.2585 15.8445C26.2585 14.5255 25.1755 13.4561 23.8397 13.4561C22.5038 13.4561 21.4209 14.5255 21.4209 15.8445C21.4209 17.1636 22.5038 18.233 23.8397 18.233Z" fill="#A7A7A7"/>
<path d="M28.0238 14.9674H23.8295C23.48 14.9674 23.1966 15.2473 23.1966 15.5924C23.1966 15.9376 23.48 16.2175 23.8295 16.2175H28.0238C28.3734 16.2175 28.6568 15.9376 28.6568 15.5924C28.6568 15.2473 28.3734 14.9674 28.0238 14.9674Z" fill="#A7A7A7"/>
<path d="M18.7851 18.3314C19.2155 18.3314 19.5292 18.7527 19.3813 19.1527C19.0422 20.0669 18.1531 20.7198 17.1094 20.7198C16.0658 20.7198 15.1766 20.0669 14.8376 19.1527C14.6897 18.7527 15.0033 18.3314 15.4338 18.3314H18.7851Z" fill="#A7A7A7"/>
<path d="M10.1366 19.3095L7.6125 18.6723C7.40183 18.6192 7.18744 18.7445 7.13365 18.9523C7.07986 19.16 7.20704 19.3716 7.4177 19.4248L9.94182 20.0619C10.1525 20.1151 10.3669 19.9898 10.4207 19.782C10.4745 19.5742 10.3473 19.3627 10.1366 19.3095Z" fill="#A7A7A7"/>
<path d="M10.0541 20.2072L7.45469 20.3795C7.23774 20.3939 7.07365 20.579 7.0882 20.793C7.10274 21.0069 7.29041 21.1687 7.50737 21.1543L10.1068 20.9821C10.3238 20.9677 10.4879 20.7826 10.4733 20.5686C10.4588 20.3546 10.2711 20.1928 10.0541 20.2072Z" fill="#A7A7A7"/>
<path d="M23.8804 19.7557L26.4045 19.1185C26.6152 19.0653 26.7423 18.8538 26.6886 18.646C26.6348 18.4382 26.4204 18.3129 26.2097 18.3661L23.6856 19.0032C23.4749 19.0564 23.3477 19.268 23.4015 19.4757C23.4553 19.6835 23.6697 19.8088 23.8804 19.7557Z" fill="#A7A7A7"/>
<path d="M23.7103 20.677L26.3098 20.8493C26.5267 20.8637 26.7144 20.7019 26.7289 20.4879C26.7435 20.2739 26.5794 20.0888 26.3624 20.0744L23.763 19.9021C23.546 19.8878 23.3584 20.0496 23.3438 20.2635C23.3293 20.4775 23.4934 20.6626 23.7103 20.677Z" fill="#A7A7A7"/>
<path d="M17.9405 22.2879V19.5609C17.9405 19.2722 17.7035 19.0382 17.4112 19.0382H17.2039C16.9116 19.0382 16.6746 19.2722 16.6746 19.5609V22.2879C16.6746 22.5766 16.9116 22.8106 17.2039 22.8106H17.4112C17.7035 22.8106 17.9405 22.5766 17.9405 22.2879Z" fill="#A7A7A7"/>
<path d="M17.1104 21.4394C17.1104 23.133 16.0074 24.5058 14.6473 24.5058C13.2872 24.5058 12.1843 23.133 12.1843 21.4394" stroke="#A7A7A7" stroke-width="0.845745" stroke-miterlimit="10" stroke-linecap="round"/>
<path d="M22.4138 21.4394C22.4138 23.133 21.3109 24.5058 19.9508 24.5058C18.5907 24.5058 17.4877 23.133 17.4877 21.4394" stroke="#A7A7A7" stroke-width="0.845745" stroke-miterlimit="10" stroke-linecap="round"/>
</svg>
