<svg width="20" height="20" viewBox="0 0 20 20" fill="none" xmlns="http://www.w3.org/2000/svg">
<path fill-rule="evenodd" clip-rule="evenodd" d="M10 20C15.5228 20 20 15.5228 20 10C20 4.47715 15.5228 0 10 0C4.47715 0 0 4.47715 0 10C0 15.5228 4.47715 20 10 20ZM9.99973 17.9388C14.3842 17.9388 17.9385 14.3845 17.9385 10.0001C17.9385 5.61564 14.3842 2.06134 9.99973 2.06134C5.61527 2.06134 2.06097 5.61564 2.06097 10.0001C2.06097 14.3845 5.61527 17.9388 9.99973 17.9388Z" fill="#A7A7A7"/>
<path fill-rule="evenodd" clip-rule="evenodd" d="M13.889 7.51341C14.3375 7.06483 14.3375 6.33754 13.889 5.88896C13.4404 5.44037 12.7131 5.44038 12.2645 5.88896L9.99996 8.1535L7.73546 5.889C7.28688 5.44042 6.55958 5.44042 6.111 5.889C5.66242 6.33758 5.66242 7.06487 6.111 7.51346L8.3755 9.77795L6.11078 12.0427C5.6622 12.4913 5.6622 13.2185 6.11078 13.6671C6.55936 14.1157 7.28666 14.1157 7.73524 13.6671L9.99996 11.4024L12.2647 13.6672C12.7133 14.1158 13.4406 14.1158 13.8892 13.6672C14.3378 13.2186 14.3378 12.4913 13.8892 12.0427L11.6244 9.77795L13.889 7.51341Z" fill="#A7A7A7"/>
</svg>
