<svg width="22" height="22" viewBox="0 0 22 22" fill="none" xmlns="http://www.w3.org/2000/svg">
<path d="M19.3102 19.7238C19.9304 19.0774 20.4829 18.3763 20.6853 18.0867C20.9811 17.6642 21.0167 17.275 20.9945 17.023C20.9637 16.674 20.804 16.3744 20.5566 16.2011C20.2468 15.9842 16.8762 13.7425 16.4658 13.4917C16.1249 13.2834 15.6362 13.2898 15.1255 13.5096C15.0645 13.5358 15.0032 13.565 14.9434 13.5966C14.7479 13.6999 14.673 13.942 14.7763 14.1376C14.8796 14.3331 15.1217 14.4077 15.3172 14.3047C15.3585 14.2829 15.4003 14.2628 15.4417 14.245C15.7327 14.1197 15.9602 14.1209 16.0483 14.1748C16.4512 14.4209 19.8381 16.6754 20.0973 16.8569C20.1874 16.92 20.2994 17.242 20.0293 17.628C19.871 17.8546 19.3474 18.5278 18.7394 19.1624C18.2475 19.6759 17.9181 19.9351 17.7114 20.066C17.5491 20.1687 17.4613 20.1924 17.4311 20.1979C17.4229 20.1993 17.4146 20.1994 17.4064 20.1991C17.0513 20.1879 16.1077 20.1579 14.5473 19.4206C12.5378 18.4712 10.2556 16.7262 7.76398 14.2342C5.27259 11.7422 3.52787 9.45933 2.57866 7.44923C1.84178 5.88842 1.81197 4.94561 1.80076 4.59058L1.80056 4.57917C1.80036 4.57577 1.80916 4.24275 2.83702 3.25751C3.47123 2.64912 4.14506 2.12498 4.37141 1.96668C4.75465 1.6997 5.08126 1.81378 5.1465 1.90404C5.36484 2.20623 7.59588 5.58902 7.82742 5.95446C7.88026 6.03751 7.89047 6.30809 7.69334 6.68193C7.477 7.0944 6.56001 8.69603 6.55081 8.71224C6.47956 8.83672 6.48036 8.98982 6.55301 9.11351C6.57942 9.15886 7.19985 10.2007 9.19638 12.2339C9.35129 12.3916 9.60582 12.3924 9.76215 12.236C9.9185 12.0797 9.91815 11.8262 9.76328 11.6684C8.32457 10.2024 7.62671 9.27094 7.36753 8.89657C7.6283 8.44007 8.22568 7.39059 8.40179 7.05457C8.70659 6.477 8.74441 5.90523 8.50346 5.52578C8.2597 5.14093 6.02867 1.75814 5.79532 1.43513C5.62161 1.19498 5.32422 1.03867 4.9794 1.00645C4.5201 0.963426 4.14646 1.14775 3.91311 1.31025C3.62293 1.51318 2.92168 2.06634 2.27566 2.68654C1.11352 3.80266 0.991239 4.3156 1.00044 4.60418L1.00064 4.61579C1.01325 5.01625 1.04687 6.07994 1.85479 7.79105C2.84343 9.8846 4.64118 12.2429 7.19802 14.8002C9.75486 17.3574 12.1124 19.1556 14.2053 20.1445C15.9162 20.9528 16.9803 20.9866 17.381 20.9992L17.3934 20.9996C17.4024 21 17.4116 21 17.421 21C17.7144 21 18.2293 20.8501 19.3102 19.7238Z" fill="#752EE7" stroke="#752EE7" stroke-width="2"/>
<path d="M15.1478 7.09715C15.0771 7.02637 15.0286 6.93416 15.0157 6.82508C14.779 4.97049 13.412 3.60357 11.5254 3.33479C11.2679 3.29595 11.0868 3.06232 11.1189 2.81458C11.1554 2.56255 11.3916 2.38765 11.6446 2.42205C13.9663 2.74985 15.6561 4.43969 15.9444 6.72189C15.9789 6.97502 15.7959 7.203 15.5337 7.22943C15.3915 7.25335 15.2496 7.19889 15.1478 7.09715Z" fill="#28CC95"/>
<path d="M12.7957 7.44795C12.725 7.37717 12.6765 7.28496 12.6636 7.17588C12.5603 6.35552 11.9543 5.74948 11.1197 5.63202C10.8623 5.59318 10.6811 5.35955 10.7132 5.1118C10.7498 4.85977 10.9859 4.68487 11.2389 4.71928C12.4908 4.89548 13.4374 5.84214 13.5923 7.07269C13.6268 7.32582 13.4438 7.5538 13.1816 7.58023C13.0394 7.60415 12.8975 7.54969 12.7957 7.44795Z" fill="#28CC95"/>
</svg>
