<svg width="14" height="16" viewBox="0 0 14 16" fill="none" xmlns="http://www.w3.org/2000/svg">
<path d="M2.73863 1.44651C1.39134 2.48032 0.465823 3.96867 0.134516 5.63427C-0.196791 7.29986 0.0887071 9.0291 0.937819 10.4998C1.78693 11.9705 3.14175 13.0824 4.74985 13.6283C4.90369 13.6805 5.05885 13.7272 5.21504 13.7684C5.74515 13.9082 6.23858 14.1865 6.56109 14.6299L7.37141 15.7437L8.3958 14.3356C8.66647 13.9635 9.06038 13.7054 9.49037 13.5417C9.55339 13.5177 9.61615 13.4928 9.67861 13.4669C11.2476 12.817 12.5268 11.6189 13.2779 10.0958C14.029 8.57275 14.2008 6.82854 13.7612 5.18818C13.6534 4.78583 13.2399 4.54706 12.8375 4.65487C12.4352 4.76268 12.1964 5.17624 12.3042 5.57858C12.649 6.86546 12.5143 8.2338 11.925 9.42868C11.3358 10.6236 10.3322 11.5635 9.10137 12.0733C7.87051 12.5831 6.49628 12.6281 5.23471 12.1999C3.97315 11.7716 2.91028 10.8994 2.24415 9.7456C1.57801 8.59182 1.35404 7.23522 1.61395 5.92855C1.87386 4.62187 2.59994 3.45425 3.6569 2.64322C4.71386 1.83218 6.02962 1.43305 7.35904 1.52018C8.68846 1.60732 9.94086 2.17478 10.8829 3.11683C11.1775 3.41137 11.655 3.41137 11.9495 3.11683C12.2441 2.8223 12.2441 2.34476 11.9495 2.05022C10.7487 0.849395 9.15228 0.126065 7.45769 0.0149959C5.76311 -0.0960735 4.08593 0.412693 2.73863 1.44651Z" fill="#979797"/>
<circle cx="7.01258" cy="7.13448" r="1.82726" stroke="#979797"/>
</svg>
