<svg width="32" height="32" viewBox="0 0 32 32" fill="none" xmlns="http://www.w3.org/2000/svg">
<circle cx="16" cy="15.9999" r="15.1545" fill="#EDEDED" stroke="#752EE7" stroke-width="1.67367"/>
<path d="M17.7905 10.5248H23.0074C24.0114 10.5248 24.8253 11.3387 24.8253 12.3426V12.3426V14.1605V17.7963V21.0266C24.8253 22.854 23.3439 24.3354 21.5165 24.3354H10.9591C9.13167 24.3354 7.65024 22.854 7.65024 21.0266V17.4301V13.9774V12.2511V12.2511C7.65024 11.2977 8.42315 10.5248 9.37658 10.5248H10.0866" stroke="#752EE7" stroke-width="2.53658" stroke-linecap="round"/>
<path d="M12.7274 9.18098H15.0515" stroke="#28CC95" stroke-width="2.53658" stroke-linecap="round"/>
<path d="M19.4034 17.4299C19.4034 18.1881 19.1433 18.9228 18.6674 19.5089C18.1916 20.0949 17.5293 20.4961 16.7936 20.644C16.0579 20.7919 15.2942 20.6774 14.6327 20.32C13.9711 19.9626 13.4527 19.3844 13.1656 18.684C12.8785 17.9836 12.8407 17.2042 13.0584 16.4787C13.2762 15.7532 13.7361 15.1264 14.3598 14.7052C14.9835 14.284 15.7324 14.0944 16.4789 14.1687C17.2254 14.243 17.9233 14.5766 18.4537 15.1127" stroke="#752EE7" stroke-width="1.69105" stroke-linecap="round"/>
<ellipse cx="19.8224" cy="15.8815" rx="0.429377" ry="0.420957" fill="#752EE7"/>
</svg>
