<svg width="26" height="30" viewBox="0 0 26 30" fill="none" xmlns="http://www.w3.org/2000/svg">
<path d="M24.0867 12.7149C24.0867 15.3025 23.182 17.81 21.5267 19.8102C19.8714 21.8105 17.568 23.1796 15.0088 23.6844C12.4497 24.1892 9.79328 23.7985 7.49213 22.5787C5.19097 21.3589 3.38749 19.3856 2.38898 16.995C1.39046 14.6044 1.25869 11.9444 2.01611 9.46825C2.77354 6.9921 4.37329 4.85299 6.54281 3.41541C8.71232 1.97783 11.3174 1.33072 13.914 1.58435C16.5107 1.83798 18.9384 2.97664 20.7834 4.80633" stroke="#752EE7" stroke-width="3" stroke-linecap="round"/>
<path d="M7.20982 9.22928C7.85248 8.20604 8.84489 7.42836 10.018 7.02873" stroke="#752EE7" stroke-width="1.82766" stroke-linecap="round"/>
<rect x="7.88006" y="25.6198" width="9.85716" height="2.17461" rx="1.05841" fill="#752EE7" stroke="#752EE7" stroke-width="0.727361"/>
<rect x="9.94841" y="28.9045" width="5.72219" height="0.73994" rx="0.355523" fill="#752EE7" stroke="#752EE7" stroke-width="0.711046"/>
</svg>
