<svg width="32" height="25" viewBox="0 0 32 25" fill="none" xmlns="http://www.w3.org/2000/svg">
<path d="M22.6137 1.50491H26.217C28.113 1.50491 29.65 3.04192 29.65 4.93792V9.83704V14.3897V21.3854C29.65 22.5506 28.7055 23.4951 27.5403 23.4951V23.4951C26.5787 23.4951 25.7387 22.8447 25.4979 21.9137L24.6963 18.8142C24.4269 17.7727 23.4873 17.0452 22.4116 17.0452V17.0452C21.4006 17.0452 20.502 17.6892 20.177 18.6464L19.8865 19.502C19.4136 20.8946 18.1063 21.8313 16.6357 21.8313H15.5775H14.5743C13.077 21.8313 11.7525 20.861 11.301 19.4334L11.0452 18.6243C10.7364 17.6478 9.83031 16.984 8.80611 16.984V16.984C7.74519 16.984 6.81603 17.6953 6.53914 18.7195L5.67159 21.9283C5.42162 22.8529 4.58278 23.4951 3.62499 23.4951V23.4951C2.4541 23.4951 1.50491 22.5459 1.50491 21.375V4.93792C1.50491 3.04192 3.04192 1.50491 4.93792 1.50491H17.1759" stroke="#752EE7" stroke-width="3" stroke-linecap="round"/>
<mask id="path-2-inside-1_0_94" fill="white">
<path d="M11.6053 10.1406C11.6053 9.79653 11.3263 9.51762 10.9823 9.51762L7.05019 9.51762C6.70613 9.51762 6.42721 9.79653 6.42721 10.1406C6.42721 10.4847 6.70613 10.7636 7.05019 10.7636L10.9823 10.7636C11.3263 10.7636 11.6053 10.4847 11.6053 10.1406Z"/>
</mask>
<path d="M11.6053 10.1406C11.6053 9.79653 11.3263 9.51762 10.9823 9.51762L7.05019 9.51762C6.70613 9.51762 6.42721 9.79653 6.42721 10.1406C6.42721 10.4847 6.70613 10.7636 7.05019 10.7636L10.9823 10.7636C11.3263 10.7636 11.6053 10.4847 11.6053 10.1406Z" fill="#752EE7"/>
<path d="M10.9823 7.51107L7.05019 7.51107L7.05019 11.5242L10.9823 11.5242L10.9823 7.51107ZM7.05019 12.7701L10.9823 12.7701L10.9823 8.75703L7.05019 8.75703L7.05019 12.7701ZM10.9823 12.7701C12.4345 12.7701 13.6118 11.5928 13.6118 10.1406L9.59872 10.1406C9.59872 9.37647 10.2182 8.75703 10.9823 8.75703L10.9823 12.7701ZM4.42067 10.1406C4.42067 11.5928 5.59795 12.7701 7.05019 12.7701L7.05019 8.75703C7.81431 8.75703 8.43376 9.37647 8.43376 10.1406L4.42067 10.1406ZM7.05019 7.51107C5.59795 7.51107 4.42067 8.68835 4.42067 10.1406L8.43376 10.1406C8.43376 10.9047 7.81431 11.5242 7.05019 11.5242L7.05019 7.51107ZM10.9823 11.5242C10.2182 11.5242 9.59872 10.9047 9.59872 10.1406L13.6118 10.1406C13.6118 8.68835 12.4345 7.51107 10.9823 7.51107L10.9823 11.5242Z" fill="#752EE7" mask="url(#path-2-inside-1_0_94)"/>
<mask id="path-4-inside-2_0_94" fill="white">
<path d="M9.01625 12.7604C9.35632 12.7604 9.632 12.4848 9.632 12.1447L9.632 8.13736C9.632 7.79729 9.35632 7.5216 9.01625 7.5216C8.67618 7.5216 8.4005 7.79728 8.4005 8.13735L8.4005 12.1447C8.4005 12.4848 8.67618 12.7604 9.01625 12.7604Z"/>
</mask>
<path d="M9.01625 12.7604C9.35632 12.7604 9.632 12.4848 9.632 12.1447L9.632 8.13736C9.632 7.79729 9.35632 7.5216 9.01625 7.5216C8.67618 7.5216 8.4005 7.79728 8.4005 8.13735L8.4005 12.1447C8.4005 12.4848 8.67618 12.7604 9.01625 12.7604Z" fill="#752EE7"/>
<path d="M11.6385 12.1447L11.6385 8.13736L7.62546 8.13735L7.62546 12.1447L11.6385 12.1447ZM6.39396 8.13735L6.39396 12.1447L10.407 12.1447L10.407 8.13735L6.39396 8.13735ZM6.39396 12.1447C6.39396 13.5929 7.56799 14.767 9.01625 14.767L9.01625 10.7539C9.78437 10.7539 10.407 11.3766 10.407 12.1447L6.39396 12.1447ZM9.01625 5.51506C7.568 5.51506 6.39396 6.6891 6.39396 8.13735L10.407 8.13735C10.407 8.90547 9.78437 9.52815 9.01625 9.52815L9.01625 5.51506ZM11.6385 8.13736C11.6385 6.6891 10.4645 5.51506 9.01625 5.51506L9.01625 9.52815C8.24813 9.52815 7.62546 8.90547 7.62546 8.13735L11.6385 8.13736ZM7.62546 12.1447C7.62546 11.3766 8.24814 10.7539 9.01625 10.7539L9.01625 14.767C10.4645 14.767 11.6385 13.5929 11.6385 12.1447L7.62546 12.1447Z" fill="#752EE7" mask="url(#path-4-inside-2_0_94)"/>
<path d="M22.0406 10.0777C22.4819 10.8503 22.2165 11.8407 21.4474 12.2896C20.6783 12.7385 19.6973 12.4756 19.256 11.703C18.8148 10.9303 19.0802 9.93995 19.8492 9.49106C20.6183 9.04217 21.5994 9.30498 22.0406 10.0777Z" fill="#752EE7" stroke="#752EE7" stroke-width="0.783319"/>
<path d="M24.4374 8.37352C24.6042 8.66556 24.5039 9.04004 24.2131 9.20983C23.9222 9.37961 23.5513 9.28015 23.3845 8.9881C23.2177 8.69605 23.318 8.32157 23.6088 8.15179C23.8997 7.98201 24.2706 8.08147 24.4374 8.37352Z" fill="#752EE7" stroke="#752EE7" stroke-width="0.783319"/>
</svg>
