<svg width="20" height="22" viewBox="0 0 20 22" fill="none" xmlns="http://www.w3.org/2000/svg">
<path d="M3.9124 2.02132C1.98766 3.46596 0.665474 5.54575 0.192169 7.87323C-0.281135 10.2007 0.126727 12.6171 1.33977 14.6722C2.5528 16.7274 4.48829 18.2811 6.78562 19.0439C7.01425 19.1198 7.24492 19.1874 7.47716 19.2466C8.21882 19.4358 8.90956 19.8202 9.36633 20.4343L10.5308 22L11.9984 20.0267C12.3825 19.5102 12.9361 19.1532 13.5398 18.9297C13.6359 18.8941 13.7316 18.857 13.8268 18.8184C16.0682 17.9103 17.8957 16.2361 18.9687 14.1077C20.0417 11.9794 20.2872 9.54207 19.6593 7.24987C19.5052 6.68764 18.9144 6.35398 18.3396 6.50463C17.7648 6.65528 17.4237 7.23318 17.5778 7.79541C18.0704 9.59367 17.8778 11.5058 17.036 13.1755C16.1942 14.8452 14.7606 16.1586 13.0022 16.871C11.2438 17.5835 9.28056 17.6463 7.47829 17.0479C5.67602 16.4495 4.15762 15.2306 3.20598 13.6183C2.25434 12.0061 1.93437 10.1104 2.30568 8.28444C2.67699 6.45852 3.71426 4.82691 5.22423 3.69358C6.73421 2.56026 8.6139 2.00252 10.5131 2.12428C12.4123 2.24604 14.2015 3.03899 15.5473 4.35541C15.9681 4.76699 16.6503 4.76699 17.0711 4.35541C17.4918 3.94383 17.4918 3.27652 17.0711 2.86494C15.3556 1.18693 13.0749 0.176161 10.654 0.020955C8.23315 -0.134251 5.83714 0.57669 3.9124 2.02132Z" fill="#A7A7A7"/>
<path d="M13.3428 9.9696C13.3428 10.6128 13.1478 11.2415 12.7825 11.7763C12.4171 12.3111 11.8979 12.728 11.2904 12.9741C10.6829 13.2203 10.0144 13.2847 9.36945 13.1592C8.72452 13.0337 8.13211 12.724 7.66714 12.2692C7.20218 11.8143 6.88553 11.2349 6.75724 10.604C6.62896 9.9732 6.6948 9.31932 6.94644 8.72508C7.19808 8.13085 7.62421 7.62294 8.17096 7.2656C8.71771 6.90826 9.3605 6.71753 10.0181 6.71753" stroke="#A7A7A7" stroke-width="2" stroke-linecap="round"/>
</svg>
