<svg width="37" height="41" viewBox="0 0 37 41" fill="none" xmlns="http://www.w3.org/2000/svg">
<g style="mix-blend-mode:luminosity">
<path d="M4.18309 11.9843C4.18309 11.9843 4.13783 -0.750847 7.20886 1.37576C10.2799 3.50236 12.0693 6.5656 12.0693 6.5656C12.0693 6.5656 4.46127 9.92106 4.18309 11.9832V11.9843Z" fill="url(#paint0_linear_281_7265)" stroke="#47257E" stroke-width="1.41622" stroke-miterlimit="10"/>
<path d="M31.8098 11.6605C31.8098 11.6605 32.3984 -1.06022 29.2391 0.931195C26.0798 2.92372 24.1623 5.90663 24.1623 5.90663C24.1623 5.90663 31.6202 9.58846 31.8109 11.6604L31.8098 11.6605Z" fill="url(#paint1_linear_281_7265)" stroke="#47257E" stroke-width="1.41622" stroke-miterlimit="10"/>
<path d="M36.2105 22.445C36.2105 23.7917 36.0626 25.105 35.7822 26.366C34.006 34.3591 26.9157 40.3323 18.439 40.3323C9.45771 40.3323 2.03183 33.6258 0.835216 24.9161C0.724827 24.1083 0.667425 23.2839 0.667425 22.445C0.667425 15.6219 4.4626 9.69209 10.0428 6.67551C12.5431 5.32333 15.4022 4.55669 18.439 4.55669C21.7628 4.55669 24.8724 5.47443 27.5328 7.07328C32.7299 10.1943 36.2105 15.9108 36.2105 22.445Z" fill="#5EF6C3" stroke="#47257E" stroke-width="1.31506" stroke-miterlimit="10"/>
<path d="M18.5348 33.328C14.4692 33.328 10.9533 32.2303 7.46942 29.8715C5.13469 28.2915 3.10022 26.316 1.57685 24.1494C1.48633 23.4295 1.43997 22.6961 1.43997 21.9695C1.43997 15.6686 4.86203 9.89986 10.3738 6.90328C12.8906 5.8622 15.5698 5.33444 18.3383 5.33444C21.4381 5.33444 24.4086 5.99109 27.1695 7.28549C29.6389 8.77545 31.7065 10.8876 33.1514 13.3942C34.6472 15.9875 35.4376 18.9529 35.4376 21.9695C35.4376 23.1906 35.3096 24.4083 35.0568 25.5905C33.9175 27.3904 32.6558 28.8415 31.3035 29.9048C28.2943 32.2725 24.3567 33.328 18.5348 33.328Z" fill="url(#paint2_linear_281_7265)"/>
<path d="M26.8342 7.92934L26.8344 7.92908L26.8293 7.92669C24.1741 6.68907 21.3187 6.06083 18.3385 6.06083C15.6782 6.06083 13.1039 6.56542 10.6856 7.5602L10.6854 7.55991L10.6805 7.56264C5.42374 10.4372 2.16151 15.9499 2.16151 21.9695C2.16151 22.6014 2.19805 23.2378 2.26891 23.8652L2.27041 23.8785L2.27824 23.8894C3.73912 25.9223 5.66547 27.7765 7.87134 29.2685C11.2298 31.5417 14.6188 32.6017 18.535 32.6017C24.1782 32.6017 27.9823 31.5952 30.8597 29.3319C32.1192 28.342 33.2996 26.9919 34.3738 25.3183L34.379 25.3102L34.3809 25.3008C34.6046 24.2119 34.7175 23.0929 34.7175 21.9695C34.7175 19.0807 33.9612 16.2419 32.5294 13.7585L32.4849 13.7842L32.5294 13.7585C31.1518 11.37 29.1841 9.35602 26.8342 7.92934ZM0.718789 21.9695C0.718789 15.1668 4.50203 9.25468 10.0649 6.24639C12.6003 5.19185 15.3989 4.60805 18.3385 4.60805C21.6294 4.60805 24.7408 5.33923 27.5086 6.6431C32.6896 9.75545 36.1591 15.4548 36.1591 21.9695C36.1591 23.3093 36.0123 24.6159 35.734 25.8707C34.6145 27.6608 33.2709 29.2785 31.7477 30.4766L31.7795 30.517L31.7477 30.4767C28.155 33.3036 23.5573 34.0544 18.535 34.0544C14.0678 34.0544 10.4602 32.7715 7.06677 30.4745L7.03798 30.517L7.06676 30.4745C4.71136 28.8811 2.53325 26.8102 0.884454 24.4214C0.775457 23.6199 0.718789 22.8018 0.718789 21.9695Z" fill="#47257E" stroke="#47257E" stroke-width="0.101158"/>
<path d="M15.92 37.8063C17.6057 35.9811 16.5505 32.2357 13.5632 29.4407C10.5759 26.6457 6.78773 25.8594 5.10205 27.6846C3.41638 29.5098 4.47156 33.2552 7.45885 36.0502C10.4461 38.8452 14.2343 39.6314 15.92 37.8063Z" fill="#5EF6C3" stroke="#47257E" stroke-width="1.31506" stroke-miterlimit="10"/>
<path d="M29.3771 36.1797C32.3644 33.3846 33.4196 29.6392 31.7339 27.8141C30.0482 25.9889 26.26 26.7751 23.2727 29.5701C20.2855 32.3651 19.2303 36.1105 20.916 37.9357C22.6016 39.7609 26.3898 38.9747 29.3771 36.1797Z" fill="#5EF6C3" stroke="#47257E" stroke-width="1.31506" stroke-miterlimit="10"/>
<path d="M11.5014 20.1971C12.9257 20.1971 14.0804 19.035 14.0804 17.6014C14.0804 16.1678 12.9257 15.0056 11.5014 15.0056C10.0771 15.0056 8.92246 16.1678 8.92246 17.6014C8.92246 19.035 10.0771 20.1971 11.5014 20.1971Z" fill="#5EF7C4"/>
<path d="M10.8264 16.6484H6.35442C5.9817 16.6484 5.67955 16.9525 5.67955 17.3277C5.67955 17.7028 5.9817 18.0069 6.35442 18.0069H10.8264C11.1991 18.0069 11.5013 17.7028 11.5013 17.3277C11.5013 16.9525 11.1991 16.6484 10.8264 16.6484Z" fill="#5EF7C4"/>
<path d="M25.3765 19.7576C26.8008 19.7576 27.9555 18.5954 27.9555 17.1618C27.9555 15.7282 26.8008 14.5661 25.3765 14.5661C23.9522 14.5661 22.7976 15.7282 22.7976 17.1618C22.7976 18.5954 23.9522 19.7576 25.3765 19.7576Z" fill="#5EF7C4"/>
<path d="M29.8386 16.2086H25.3666C24.9939 16.2086 24.6917 16.5127 24.6917 16.8879C24.6917 17.263 24.9939 17.5671 25.3666 17.5671H29.8386C30.2113 17.5671 30.5135 17.263 30.5135 16.8879C30.5135 16.5127 30.2113 16.2086 29.8386 16.2086Z" fill="#5EF7C4"/>
<path d="M19.9879 19.8646C20.4469 19.8646 20.7813 20.3225 20.6237 20.7571C20.2621 21.7507 19.3141 22.4603 18.2014 22.4603C17.0886 22.4603 16.1406 21.7507 15.7791 20.7571C15.6214 20.3225 15.9558 19.8646 16.4148 19.8646H19.9879Z" fill="#5EF6C3"/>
<path d="M10.7669 20.9277L8.07564 20.2352C7.85102 20.1774 7.62244 20.3136 7.56509 20.5394C7.50774 20.7653 7.64333 20.9952 7.86795 21.053L10.5592 21.7454C10.7838 21.8032 11.0124 21.667 11.0698 21.4412C11.1271 21.2154 10.9915 20.9855 10.7669 20.9277Z" fill="#5EF6C3"/>
<path d="M10.6788 21.9032L7.90728 22.0904C7.67597 22.1061 7.50102 22.3072 7.51652 22.5398C7.53203 22.7723 7.73212 22.9482 7.96344 22.9326L10.735 22.7453C10.9663 22.7297 11.1413 22.5285 11.1258 22.296C11.1103 22.0634 10.9102 21.8876 10.6788 21.9032Z" fill="#5EF6C3"/>
<path d="M25.4198 21.4127L28.1111 20.7202C28.3357 20.6624 28.4713 20.4325 28.4139 20.2067C28.3566 19.9809 28.128 19.8447 27.9034 19.9025L25.2121 20.5949C24.9875 20.6527 24.8519 20.8826 24.9093 21.1084C24.9666 21.3342 25.1952 21.4704 25.4198 21.4127Z" fill="#5EF6C3"/>
<path d="M25.2391 22.4142L28.0107 22.6014C28.242 22.617 28.4421 22.4412 28.4576 22.2086C28.4731 21.9761 28.2981 21.7749 28.0668 21.7593L25.2953 21.572C25.0639 21.5564 24.8639 21.7323 24.8483 21.9648C24.8328 22.1974 25.0078 22.3985 25.2391 22.4142Z" fill="#5EF6C3"/>
<path d="M19.0875 24.1646V21.201C19.0875 20.8872 18.8349 20.6329 18.5232 20.6329H18.3022C17.9905 20.6329 17.7378 20.8872 17.7378 21.201V24.1646C17.7378 24.4784 17.9905 24.7327 18.3022 24.7327H18.5232C18.8349 24.7327 19.0875 24.4784 19.0875 24.1646Z" fill="#5EF6C3"/>
<path d="M18.2011 23.2421C18.2011 25.0828 17.0251 26.5747 15.575 26.5747C14.1248 26.5747 12.9488 25.0828 12.9488 23.2421" stroke="#5EF6C3" stroke-width="0.845745" stroke-miterlimit="10" stroke-linecap="round"/>
<path d="M23.8579 23.2421C23.8579 25.0828 22.6819 26.5747 21.2317 26.5747C19.7816 26.5747 18.6056 25.0828 18.6056 23.2421" stroke="#5EF6C3" stroke-width="0.845745" stroke-miterlimit="10" stroke-linecap="round"/>
</g>
<defs>
<linearGradient id="paint0_linear_281_7265" x1="14.4504" y1="-3.25157" x2="8.98637" y2="15.1414" gradientUnits="userSpaceOnUse">
<stop offset="0.25" stop-color="#493072"/>
<stop offset="0.739583" stop-color="#9531F9"/>
</linearGradient>
<linearGradient id="paint1_linear_281_7265" x1="33.4019" y1="-3.98459" x2="28.7497" y2="14.8893" gradientUnits="userSpaceOnUse">
<stop offset="0.25" stop-color="#493072"/>
<stop offset="0.739583" stop-color="#9531F9"/>
</linearGradient>
<linearGradient id="paint2_linear_281_7265" x1="18.4388" y1="-3.5127" x2="18.4388" y2="51.891" gradientUnits="userSpaceOnUse">
<stop offset="0.507722" stop-color="#9531F9"/>
<stop offset="0.77027" stop-color="#493072"/>
</linearGradient>
</defs>
</svg>
