<svg width="13" height="16" viewBox="0 0 13 16" fill="none" xmlns="http://www.w3.org/2000/svg">
<path d="M11.913 7.24695V10.9875C11.913 11.2334 11.7965 11.4648 11.599 11.6112L6.49155 15.3978C6.32513 15.5211 6.09759 15.5211 5.93117 15.3978L0.82376 11.6112C0.626229 11.4648 0.509746 11.2334 0.509746 10.9875V4.20403C0.509746 3.93463 0.735808 3.72203 1.00508 3.714C2.63264 3.66547 4.18088 2.96344 5.29189 1.7542L6.21136 0.753418L7.13083 1.75419C8.24184 2.96344 9.79008 3.66547 11.4176 3.714C11.6869 3.72203 11.913 3.93463 11.913 4.20403V5.11657" stroke="#404040" stroke-linecap="round"/>
<path d="M8.33456 8.17941C8.33456 8.64685 8.18031 9.10123 7.89575 9.47208C7.61119 9.84293 7.21222 10.1095 6.7607 10.2305C6.30919 10.3515 5.83037 10.3201 5.39851 10.1412C4.96665 9.96233 4.60588 9.64595 4.37216 9.24113C4.13844 8.83632 4.04483 8.36569 4.10584 7.90225C4.16685 7.4388 4.37908 7.00844 4.70962 6.67791C5.04015 6.34738 5.47051 6.13515 5.93395 6.07414C6.39739 6.01312 6.86802 6.10674 7.27284 6.34046" stroke="#404040" stroke-linecap="round"/>
</svg>
