<svg width="16" height="16" viewBox="0 0 16 16" fill="none" xmlns="http://www.w3.org/2000/svg">
<path d="M14.2229 14.5324C14.6873 14.0483 15.101 13.5234 15.2526 13.3065C15.474 12.9902 15.5007 12.6987 15.4841 12.51C15.461 12.2487 15.3414 12.0244 15.1562 11.8946C14.9242 11.7321 12.4003 10.0536 12.0929 9.86579C11.8377 9.70979 11.4718 9.71458 11.0893 9.87913C11.0436 9.89876 10.9978 9.92064 10.953 9.94432C10.8065 10.0216 10.7505 10.203 10.8278 10.3494C10.9051 10.4958 11.0865 10.5517 11.2329 10.4745C11.2638 10.4582 11.2951 10.4432 11.3261 10.4299C11.544 10.336 11.7144 10.3369 11.7803 10.3773C12.082 10.5616 14.6182 12.2497 14.8123 12.3857C14.8797 12.4329 14.9636 12.674 14.7613 12.9631C14.6428 13.1327 14.2507 13.6368 13.7955 14.112C13.4271 14.4966 13.1805 14.6906 13.0256 14.7886C12.9042 14.8656 12.8384 14.8833 12.8157 14.8874C12.8096 14.8885 12.8035 14.8885 12.7973 14.8883C12.5314 14.8799 11.8248 14.8574 10.6564 14.3054C9.15165 13.5944 7.44266 12.2878 5.57692 10.4218C3.71133 8.55573 2.40486 6.84629 1.69408 5.34111C1.1423 4.17236 1.11997 3.46637 1.11158 3.20053L1.11143 3.19198C1.11128 3.18944 1.11788 2.94007 1.88755 2.20232C2.36245 1.74675 2.86703 1.35427 3.03652 1.23573C3.3235 1.03582 3.56807 1.12124 3.61692 1.18882C3.78042 1.41511 5.45104 3.94817 5.62443 4.22181C5.66399 4.284 5.67163 4.48661 5.52402 4.76655C5.36202 5.07541 4.67537 6.27473 4.66848 6.28686C4.61513 6.38008 4.61573 6.49472 4.67013 6.58733C4.6899 6.62129 5.15449 7.40141 6.64952 8.92389C6.76552 9.04201 6.95611 9.04258 7.07318 8.92551C7.19025 8.80844 7.18999 8.6186 7.07402 8.50043C5.99669 7.40272 5.47413 6.70522 5.28005 6.42489C5.47532 6.08306 5.92265 5.2972 6.05452 5.04559C6.28276 4.61309 6.31108 4.18495 6.13065 3.90081C5.94812 3.61264 4.2775 1.07957 4.10276 0.837703C3.97268 0.657872 3.74999 0.540833 3.49179 0.516705C3.14786 0.484486 2.86808 0.622506 2.69334 0.744191C2.47605 0.896148 1.95094 1.31036 1.4672 1.77477C0.596967 2.61053 0.505404 2.99462 0.512297 3.21071L0.512447 3.21941C0.521888 3.51927 0.547064 4.31577 1.15204 5.59706C1.89235 7.16474 3.23853 8.93067 5.15312 10.8456C7.06772 12.7605 8.83305 14.1069 10.4003 14.8474C11.6814 15.4527 12.4782 15.478 12.7782 15.4874L12.7875 15.4877C12.7943 15.488 12.8012 15.488 12.8082 15.488C13.0279 15.488 13.4135 15.3758 14.2229 14.5324Z" fill="#404040" stroke="#404040"/>
</svg>
