<svg width="28" height="22" viewBox="0 0 28 22" fill="none" xmlns="http://www.w3.org/2000/svg">
<path fill-rule="evenodd" clip-rule="evenodd" d="M3.97638 5.85016C3.97638 4.13239 5.37503 2.73179 7.11033 2.73179C8.84563 2.73179 10.2443 4.13239 10.2443 5.85016C10.2443 7.56794 8.84563 8.96854 7.11033 8.96854C5.37503 8.96854 3.97638 7.56794 3.97638 5.85016ZM7.11033 0C3.87524 0 1.2446 2.61475 1.2446 5.85016C1.2446 7.9416 2.34383 9.77368 3.995 10.8078C2.6265 11.3248 1.37813 12.1798 0.352792 13.3137C-0.153165 13.8732 -0.109738 14.737 0.449788 15.2429C1.00931 15.7489 1.87306 15.7055 2.37902 15.146C3.65579 13.734 5.35628 12.9707 7.09652 12.9707C8.83676 12.9707 10.5372 13.734 11.814 15.146C12.8069 16.244 13.4748 17.6615 13.725 19.2013H11.6905C10.9361 19.2013 10.3246 19.8128 10.3246 20.5672C10.3246 21.3216 10.9361 21.9331 11.6905 21.9331H15.2008H16.5667V20.5672C16.5667 17.8699 15.5991 15.2588 13.8402 13.3137C12.8192 12.1846 11.577 11.332 10.2152 10.8143C11.8722 9.78139 12.9761 7.946 12.9761 5.85016C12.9761 2.61475 10.3454 0 7.11033 0Z" fill="#A7A7A7"/>
<path fill-rule="evenodd" clip-rule="evenodd" d="M15.4096 5.85065C15.4096 4.13288 16.8082 2.73228 18.5435 2.73228C20.2788 2.73228 21.6775 4.13288 21.6775 5.85065C21.6775 7.56842 20.2788 8.96903 18.5435 8.96903C16.8082 8.96903 15.4096 7.56842 15.4096 5.85065ZM18.5435 0.000488264C15.3084 0.000488264 12.6778 2.61524 12.6778 5.85065C12.6778 7.94206 13.777 9.77412 15.4281 10.8082C14.0597 11.3252 12.8113 12.1803 11.786 13.3141C11.28 13.8737 11.3235 14.7374 11.883 15.2434C12.4425 15.7493 13.3063 15.7059 13.8122 15.1464C15.089 13.7344 16.7895 12.9711 18.5297 12.9711C20.27 12.9711 21.9704 13.7344 23.2472 15.1464C24.2401 16.2444 24.908 17.6619 25.1582 19.2017H24.0642C23.3098 19.2017 22.6983 19.8133 22.6983 20.5676C22.6983 21.322 23.3098 21.9335 24.0642 21.9335H26.634H27.9999V20.5676C27.9999 17.8703 27.0322 15.2592 25.2734 13.3141C24.2524 12.185 23.0102 11.3324 21.6485 10.8148C23.3054 9.78183 24.4093 7.94646 24.4093 5.85065C24.4093 2.61524 21.7786 0.000488264 18.5435 0.000488264Z" fill="#A7A7A7"/>
</svg>
